<?xml version="1.0" standalone="no"?>
<!DOCTYPE svg PUBLIC "-//W3C//DTD SVG 20010904//EN"
 "http://www.w3.org/TR/2001/REC-SVG-20010904/DTD/svg10.dtd">
<svg version="1.0" xmlns="http://www.w3.org/2000/svg"
 width="2039.000000pt" height="2045.000000pt" viewBox="0 0 2039.000000 2045.000000"
 preserveAspectRatio="xMidYMid meet">

<g transform="translate(0.000000,2045.000000) scale(0.100000,-0.100000)"
fill="#000000" stroke="none">
<path d="M9770 20444 c-30 -2 -136 -8 -235 -14 -1324 -79 -2693 -448 -3895
-1050 -803 -402 -1604 -948 -2266 -1546 -177 -160 -535 -516 -711 -708 -1475
-1610 -2395 -3668 -2613 -5842 -61 -613 -66 -1300 -14 -1899 149 -1733 723
-3367 1687 -4804 762 -1135 1770 -2130 2912 -2873 1367 -890 2928 -1438 4545
-1597 391 -39 539 -45 1015 -45 476 0 625 6 1015 45 2152 212 4140 1088 5785
2547 192 171 679 662 850 857 799 916 1383 1866 1825 2972 346 864 577 1812
669 2743 40 406 46 528 46 1025 0 497 -6 619 -46 1025 -208 2109 -1069 4085
-2484 5705 -175 200 -682 711 -875 881 -961 849 -2017 1490 -3176 1927 -942
355 -1882 560 -2929 638 -143 10 -990 20 -1105 13z m1010 -194 c1983 -119
3843 -801 5425 -1989 630 -472 1264 -1084 1770 -1706 484 -596 870 -1203 1224
-1925 483 -986 793 -2032 931 -3135 86 -695 98 -1448 34 -2155 -111 -1225
-445 -2410 -990 -3510 -213 -430 -372 -707 -629 -1095 -394 -595 -767 -1049
-1289 -1570 -479 -478 -932 -851 -1491 -1228 -104 -70 -195 -126 -202 -125 -9
2 -736 1118 -876 1345 -4 7 57 54 151 116 680 455 1289 1002 1812 1632 424
509 819 1123 1099 1707 458 955 716 1913 807 3003 25 293 25 985 1 1275 -32
375 -74 681 -137 1002 -295 1489 -995 2877 -2020 4003 -157 172 -493 504 -655
646 -1124 988 -2462 1651 -3913 1939 -561 111 -1021 154 -1637 154 -625 0
-1083 -44 -1660 -159 -1438 -288 -2768 -949 -3885 -1929 -158 -139 -506 -482
-660 -651 -776 -853 -1376 -1871 -1740 -2954 -226 -671 -353 -1298 -417 -2051
-24 -290 -24 -982 1 -1275 82 -980 302 -1864 676 -2720 635 -1452 1698 -2721
3023 -3609 141 -94 147 -100 134 -120 -8 -12 -204 -313 -437 -671 -232 -357
-426 -654 -431 -659 -5 -6 -81 39 -196 116 -1077 725 -2023 1676 -2742 2758
-260 391 -431 688 -645 1120 -545 1101 -877 2277 -991 3505 -53 585 -53 1258
1 1840 187 2026 979 3934 2278 5489 367 439 844 916 1278 1278 1563 1304 3466
2095 5493 2283 152 14 442 31 640 39 144 5 685 -3 865 -14z m-790 -2075 l0
-274 -42 -11 c-24 -7 -74 -20 -113 -31 -38 -10 -71 -19 -72 -19 -2 0 -3 135
-3 299 l0 300 48 4 c26 2 77 4 115 5 l67 2 0 -275z m300 24 l0 -251 -38 7
c-25 4 -63 -1 -112 -14 -41 -12 -78 -21 -82 -21 -5 0 -8 119 -8 265 l0 265
120 0 120 0 0 -251z m259 245 l31 -6 0 -285 c0 -266 -1 -284 -17 -279 -30 9
-126 34 -170 46 l-43 11 0 259 0 260 84 0 c46 0 98 -3 115 -6z m-849 -312 l0
-309 -112 -30 -113 -30 -3 325 c-1 179 0 327 2 329 4 4 40 8 209 22 16 1 17
-20 17 -307z m1123 298 l47 0 0 -315 c0 -173 -3 -315 -7 -315 -5 0 -56 12
-115 27 l-108 28 0 294 0 294 68 -6 c37 -4 88 -7 115 -7z m265 -26 l72 -7 0
-339 c0 -301 -2 -339 -15 -334 -9 3 -44 13 -78 21 -34 9 -79 21 -99 26 l-38
10 0 321 0 320 43 -6 c23 -3 75 -8 115 -12z m-1678 -327 l0 -332 -107 -28
c-60 -15 -111 -27 -115 -27 -5 0 -8 157 -8 349 l0 350 43 5 c23 3 53 7 67 10
14 2 46 4 73 5 l47 1 0 -333z m1947 292 l93 -12 2 -353 c2 -230 0 -354 -7
-354 -5 0 -58 12 -117 27 l-108 28 0 343 0 344 23 -5 c12 -3 64 -11 114 -18z
m-2239 -346 l-3 -358 -84 -22 c-47 -12 -97 -25 -113 -28 l-28 -7 0 371 c0 290
3 371 13 372 6 0 48 6 92 14 44 7 90 13 103 14 l22 1 -2 -357z m2619 283 c4
-4 4 -728 0 -732 -2 -2 -35 5 -73 15 -38 11 -88 24 -111 31 l-43 11 0 358 0
358 113 -19 c61 -11 113 -21 114 -22z m-2907 -341 l0 -374 -42 -11 c-24 -7
-74 -20 -113 -31 -38 -10 -71 -19 -72 -19 -2 0 -3 173 -3 384 l0 384 98 17
c53 9 102 18 107 20 6 2 13 4 18 4 4 1 7 -168 7 -374z m3098 303 l102 -21 1
-296 c1 -339 -1 -444 -6 -450 -2 -2 -54 9 -115 25 l-110 29 0 367 c0 288 3
368 13 368 6 0 58 -10 115 -22z m-3388 -371 l0 -384 -112 -30 -113 -30 -5 101
c-3 56 -4 232 -2 391 l3 291 92 21 c51 11 102 21 115 22 l22 1 0 -383z m3663
307 c56 -14 105 -29 109 -33 8 -7 12 -740 5 -747 -2 -2 -34 5 -73 16 -38 10
-88 24 -111 30 l-43 11 0 374 c0 206 3 375 6 375 3 0 51 -12 107 -26z m-3953
-377 l0 -392 -110 -29 c-61 -16 -113 -26 -116 -24 -6 7 -5 770 1 776 5 5 199
59 218 61 4 1 7 -176 7 -392z m4355 261 c7 -6 7 -729 1 -735 -3 -3 -55 7 -116
23 l-110 29 0 377 0 376 110 -33 c61 -18 113 -34 115 -37z m-4647 -340 l-3
-391 -108 -29 c-60 -16 -111 -27 -113 -25 -4 4 -5 89 -4 563 l0 210 103 31
c56 17 108 31 115 32 10 1 12 -80 10 -391z m4840 281 l102 -33 0 -171 c1 -395
0 -548 -3 -551 -2 -2 -34 5 -73 16 -38 10 -88 24 -111 30 l-43 11 0 370 c0
293 3 370 13 366 6 -2 58 -19 115 -38z m-5128 -364 l0 -384 -42 -11 c-24 -7
-74 -20 -112 -31 -38 -10 -71 -17 -73 -15 -3 3 -4 214 -3 593 l0 161 103 35
c56 20 108 36 115 36 9 1 12 -82 12 -384z m5422 259 l108 -39 0 -346 0 -346
-120 31 -120 31 0 359 c0 282 3 357 13 354 6 -2 60 -22 119 -44z m-5712 -347
l0 -374 -112 -30 c-62 -17 -114 -29 -115 -28 -3 1 -4 344 -3 616 l0 107 103
40 c56 23 108 41 115 41 9 1 12 -80 12 -372z m4845 -167 c1089 -281 2014 -520
2056 -531 l76 -20 10 -55 10 -54 -4169 0 -4168 0 0 30 c0 17 1 30 3 30 1 1
940 252 2087 559 1147 307 2092 557 2100 555 8 -2 906 -233 1995 -514z m1165
395 l95 -41 3 -323 2 -323 -22 6 c-13 3 -61 16 -108 28 -47 11 -88 24 -93 27
-6 6 -9 203 -7 578 0 93 2 102 18 96 9 -4 60 -25 112 -48z m-6300 -323 l0
-357 -87 -24 c-49 -13 -101 -26 -118 -28 l-30 -5 2 299 c2 164 3 316 3 339 l0
40 108 46 c59 26 110 47 115 47 4 1 7 -160 7 -357z m6595 192 l95 -44 0 -294
0 -293 -112 29 c-62 16 -114 30 -115 32 -2 2 -5 445 -3 589 0 46 -4 46 135
-19z m-6892 -624 c-11 -9 -214 -62 -219 -57 -4 4 -5 152 -4 495 l0 123 113 53
112 52 3 -330 c1 -181 -1 -333 -5 -336z m7275 176 c2 -242 1 -257 -15 -252
-10 3 -58 15 -108 27 -49 12 -94 25 -98 29 -7 6 -8 81 -7 453 l0 119 113 -59
112 -59 3 -258z m-7562 -253 c-4 -4 -216 -62 -228 -63 -5 0 -8 123 -8 273 l0
272 118 62 117 62 3 -301 c1 -166 1 -303 -2 -305z m7852 135 l2 -214 -115 29
-115 30 0 59 c0 32 -1 126 -1 208 0 83 1 168 1 190 l0 39 113 -64 112 -63 3
-214z m-8147 136 c0 -93 -1 -210 -1 -261 l0 -92 -42 -11 c-152 -40 -158 -42
-158 -65 0 -37 -12 -85 -21 -85 -5 0 -9 126 -9 279 l0 279 112 66 c62 36 114
64 116 62 1 -2 3 -79 3 -172z m8337 -42 l102 -64 0 -329 0 -329 -100 0 -100 0
0 125 c0 104 -2 125 -15 125 -9 0 -15 9 -15 23 -1 20 -1 86 0 430 0 76 3 96
13 91 6 -4 58 -36 115 -72z m-8625 -340 l2 -382 -117 0 -118 0 0 313 0 312
112 72 c62 40 114 71 115 69 2 -1 4 -175 6 -384z m8907 155 l105 -74 3 -231 2
-232 -117 0 -118 0 2 302 c2 167 3 304 3 306 1 9 28 -7 120 -71z m-9198 -255
l3 -282 -117 0 -118 0 0 214 0 213 112 77 c62 42 114 73 115 69 2 -4 4 -135 5
-291z m9488 46 l110 -82 0 -123 0 -123 -117 0 -118 0 2 157 c1 87 2 179 3 206
0 26 2 47 5 47 3 0 55 -37 115 -82z m-9777 -142 l2 -186 -117 0 -118 0 0 103
0 102 68 52 c128 100 157 121 160 118 1 -1 4 -86 5 -189z m9057 -76 l0 -100
-4190 0 -4190 0 0 100 0 100 4190 0 4190 0 0 -100z m1018 -17 c56 -46 102 -86
102 -89 0 -2 -52 -4 -115 -4 l-115 0 0 96 c0 73 3 94 13 88 6 -4 58 -45 115
-91z m-10365 -30 l3 -63 -99 0 -99 0 94 76 c56 46 94 71 95 63 1 -8 4 -42 6
-76z m1667 -163 l0 -70 -345 0 -345 0 0 70 0 70 345 0 345 0 0 -70z m6900 -15
l0 -85 49 0 c52 0 61 -8 61 -55 0 -27 45 -85 66 -85 8 0 14 -10 14 -22 0 -13
-29 -419 -65 -902 -36 -484 -65 -883 -65 -888 0 -4 -1557 -8 -3460 -8 -1903 0
-3460 2 -3460 4 0 3 -29 401 -65 885 -36 484 -65 892 -65 906 0 14 6 25 13 25
27 0 59 48 64 94 5 40 9 46 29 46 23 0 24 2 24 85 l0 85 3430 0 3430 0 0 -85z
m730 15 l0 -70 -350 0 -350 0 0 70 0 70 350 0 350 0 0 -70z m-9633 -9840 c12
-74 29 -168 37 -208 14 -64 16 -214 16 -1143 0 -692 -3 -1069 -10 -1067 -5 1
-59 48 -119 103 l-110 100 0 5929 -1 5929 78 72 77 72 5 -4826 5 -4826 22
-135z m11091 3711 l-3 -5975 -110 -100 -110 -100 -3 935 -2 934 30 120 c35
142 65 325 80 485 7 78 10 1683 10 4950 l0 4834 55 -54 55 -54 -2 -5975z
m-9128 5995 c0 -19 -9 -44 -19 -57 -19 -23 -25 -24 -223 -30 -255 -8 -273 -3
-293 89 l-7 32 271 0 271 0 0 -34z m7610 3 c0 -17 -5 -39 -11 -51 -22 -41 -60
-46 -277 -39 -198 6 -204 7 -223 30 -10 13 -19 38 -19 57 l0 34 265 0 265 0 0
-31z m1810 -5994 l0 -5690 -115 -115 -115 -115 0 5920 0 5920 115 -115 115
-115 0 -5690z m-9705 5345 c9 -250 19 -458 23 -462 4 -4 17 -5 28 -2 19 5 21
11 17 72 -4 79 -33 854 -33 895 0 17 5 27 15 27 10 0 15 -10 15 -32 0 -52 69
-1297 76 -1355 5 -48 8 -53 30 -53 19 0 24 5 24 25 0 36 -68 1246 -75 1338
l-6 77 30 0 c26 0 31 -4 35 -32 7 -42 127 -1703 126 -1745 l0 -33 -215 0 -215
0 0 900 c0 793 2 900 15 900 13 0 15 -35 15 -255 l0 -255 25 0 25 0 0 253 c0
243 7 314 22 230 4 -21 14 -243 23 -493z m7530 453 c-9 -127 -25 -432 -25
-478 0 -35 4 -45 21 -50 11 -4 23 -5 25 -2 4 4 34 498 34 570 0 26 4 37 15 37
18 0 19 30 -4 -535 -10 -247 -18 -451 -17 -452 1 -2 13 -4 27 -5 29 -4 25 -53
47 536 13 330 20 440 30 444 9 3 12 -159 12 -787 l0 -791 25 0 25 0 0 790 0
790 35 0 35 0 0 -900 0 -900 -239 0 -240 0 5 33 c2 17 31 410 64 872 33 462
63 855 66 873 4 28 9 32 35 32 l29 0 -5 -77z m-9447 -5905 c2 -3254 -1 -5758
-5 -5758 -5 0 -59 51 -121 113 l-112 114 0 5639 0 5639 113 113 112 112 5
-107 c3 -60 7 -2699 8 -5865z m11814 5588 l98 -109 0 -5371 0 -5372 -105 -116
c-57 -64 -109 -119 -115 -123 -7 -4 -10 1713 -10 5611 0 5249 1 5616 17 5603
9 -8 61 -63 115 -123z m-12114 -8262 l-3 -2787 -112 128 -113 128 0 5312 0
5313 113 128 112 128 3 -2781 c1 -1530 1 -4036 0 -5569z m12391 7937 l111
-138 0 -5018 0 -5018 -94 -116 c-51 -64 -103 -127 -115 -141 l-20 -25 -1 5298
c0 2913 2 5297 4 5297 1 0 53 -62 115 -139z m-12681 -7771 l-3 -2622 -112 142
-113 141 0 4953 0 4953 113 143 112 143 3 -2616 c1 -1438 1 -3795 0 -5237z
m12986 7371 l96 -135 0 -4621 0 -4621 -95 -133 c-52 -73 -104 -144 -115 -158
l-20 -26 0 4938 c0 4816 0 4937 19 4914 10 -13 62 -84 115 -158z m-13276
-7187 l-3 -2438 -112 161 -113 160 0 4548 0 4547 78 112 c43 61 94 133 113
159 l34 49 3 -2430 c1 -1337 1 -3527 0 -4868z m13571 6744 l91 -147 0 -4166 0
-4166 -91 -147 c-51 -81 -102 -163 -115 -182 l-24 -35 0 4530 0 4530 24 -35
c13 -19 64 -101 115 -182z m-13861 -6534 l-3 -2228 -94 155 c-52 85 -103 168
-113 185 -17 30 -18 172 -18 4111 l0 4079 91 150 c51 82 101 165 113 184 l21
35 3 -2222 c1 -1222 1 -3224 0 -4449z m14188 5954 l54 -108 0 -3625 0 -3625
-54 -108 c-30 -59 -82 -156 -115 -217 l-61 -110 0 4060 0 4060 61 -110 c33
-60 85 -158 115 -217z m-14478 -5713 l-3 -1988 -112 220 -113 220 0 3528 0
3528 113 220 112 220 3 -1981 c1 -1089 1 -2875 0 -3967z m14743 5142 l79 -189
0 -2972 0 -2973 -51 -124 c-52 -127 -169 -391 -175 -398 -2 -2 -4 1570 -4
3495 l1 3499 35 -75 c20 -41 71 -160 115 -263z m-7213 290 c17 -28 16 -30 -31
-120 -35 -68 -50 -111 -58 -167 -23 -151 8 -340 75 -467 19 -34 105 -157 192
-273 l159 -210 35 7 c55 12 161 7 208 -11 l43 -16 132 72 c397 216 1126 538
1261 557 230 33 460 -104 520 -308 38 -131 19 -212 -155 -647 -153 -384 -341
-778 -508 -1068 -35 -59 -61 -109 -59 -112 2 -2 117 -42 256 -89 265 -90 679
-251 747 -290 51 -29 137 -119 163 -171 92 -182 56 -374 -93 -486 -86 -65
-572 -271 -910 -387 -82 -28 -155 -53 -162 -56 -8 -3 14 -48 61 -127 313 -526
572 -1090 631 -1373 53 -258 -40 -461 -238 -520 -72 -21 -188 -19 -277 6 -123
34 -511 197 -862 362 l-98 46 0 -173 c0 -95 -5 -198 -10 -227 -16 -86 -63
-170 -129 -231 -107 -99 -225 -135 -346 -105 -97 24 -149 62 -294 214 l-128
134 -8 -193 c-4 -106 -9 -195 -11 -197 -2 -2 -22 8 -44 23 l-40 26 0 149 0
149 37 24 c20 13 41 26 47 30 15 10 -43 68 -60 61 -9 -3 -14 2 -14 14 0 17
-191 262 -226 289 -8 6 -14 14 -14 18 0 4 -26 40 -57 81 l-58 75 -3 -35 c-2
-19 -6 -35 -10 -34 -4 0 -45 29 -92 63 l-85 62 -5 115 c-5 111 -6 116 -44 179
-22 36 -48 76 -58 89 l-18 24 0 -31 c0 -27 -8 -37 -52 -67 -34 -23 -54 -31
-55 -23 -2 7 -7 87 -12 178 l-9 165 -42 74 c-23 41 -80 150 -127 243 -47 92
-90 168 -96 168 -6 0 -85 12 -176 26 -290 45 -634 121 -921 204 -58 16 -108
30 -112 30 -17 0 -279 -496 -430 -812 -142 -301 -303 -663 -322 -729 -24 -78
-21 -164 8 -224 28 -61 56 -87 121 -117 65 -29 200 -31 290 -4 151 45 749 303
1060 457 281 138 416 215 661 376 21 13 24 12 53 -30 l31 -45 -88 -60 c-204
-140 -601 -349 -982 -517 -243 -108 -568 -241 -674 -277 -256 -86 -487 -18
-574 170 -21 45 -27 76 -30 144 -5 115 9 162 142 459 198 448 357 771 543
1108 41 73 73 135 71 136 -2 2 -89 33 -193 70 -225 79 -590 222 -695 273 -94
46 -195 143 -233 223 -90 193 -24 393 173 524 73 48 372 169 737 296 101 35
183 67 183 71 0 3 -39 75 -86 160 -228 406 -535 1098 -634 1426 -30 97 -25
211 12 292 81 177 297 288 503 259 75 -10 450 -156 705 -273 90 -42 167 -76
170 -76 3 0 12 39 18 88 7 48 24 128 37 178 81 299 208 448 394 462 91 6 166
-12 271 -64 109 -55 146 -94 301 -320 62 -90 118 -169 125 -175 12 -9 14 -2
14 38 0 87 35 195 116 355 l77 153 146 148 c127 129 149 148 174 145 19 -2 34
-13 45 -31z m-7820 -5143 l-3 -1697 -74 174 c-41 96 -91 220 -112 277 l-39
102 0 2838 0 2837 31 80 c16 44 67 168 112 275 l82 195 3 -1692 c1 -930 1
-2455 0 -3389z m15257 4253 c31 -95 76 -242 101 -329 l44 -156 0 -2080 0
-2079 -59 -204 c-53 -182 -157 -497 -167 -508 -2 -2 -4 1255 -4 2795 1 2442 3
2795 15 2766 8 -18 40 -111 70 -205z m-15546 -2564 l0 -2658 -25 70 c-37 105
-130 422 -169 577 l-35 137 0 1876 0 1876 26 102 c54 216 191 677 201 677 2 0
3 -1196 2 -2657z m15800 1592 c106 -537 151 -1006 151 -1585 0 -468 -20 -754
-80 -1180 -27 -190 -106 -619 -116 -629 -2 -2 -4 810 -3 1805 0 995 2 1805 5
1799 2 -5 22 -100 43 -210z m-16090 -1592 l-1 -1568 -19 95 c-27 133 -75 476
-93 660 -27 269 -36 475 -36 820 0 448 20 745 76 1140 27 190 66 420 71 420 2
0 3 -705 2 -1567z m7771 -2013 l0 -81 -55 38 c-30 21 -54 43 -55 49 0 11 87
74 103 74 4 0 7 -36 7 -80z m-50 -145 c58 -42 60 -51 60 -265 l0 -155 -43 -27
c-37 -24 -43 -25 -48 -10 -3 9 -9 98 -13 197 -4 99 -9 206 -13 238 -3 31 -2
57 2 57 4 0 29 -16 55 -35z m317 -233 c2 -4 -23 -24 -55 -45 -31 -21 -67 -45
-79 -54 l-23 -15 0 116 0 116 78 -56 c42 -30 78 -58 79 -62z m208 -144 l85
-62 0 -95 0 -96 -62 -40 c-33 -22 -74 -48 -89 -58 l-29 -19 0 216 c0 119 2
216 5 216 3 0 44 -28 90 -62z m-175 -153 c0 -113 -3 -205 -7 -205 -5 0 -46 24
-93 54 l-85 53 -3 90 -3 91 88 61 c48 34 91 61 95 61 5 0 8 -92 8 -205z m-280
-10 c0 -23 -2 -24 -21 -15 -16 9 -18 14 -8 26 17 21 29 17 29 -11z m-44 -95
c43 -30 44 -33 44 -84 0 -29 3 -100 6 -157 l7 -105 -41 -27 c-23 -15 -43 -27
-46 -27 -2 0 -7 82 -10 183 -4 100 -10 197 -13 215 -3 17 -2 32 2 32 3 0 26
-14 51 -30z m219 -138 l75 -49 -52 -35 c-29 -19 -65 -43 -80 -52 l-28 -18 0
101 c0 55 2 101 4 101 3 0 39 -22 81 -48z m365 -47 l0 -86 -27 15 c-16 8 -47
28 -70 44 l-43 28 63 41 c34 23 65 42 70 42 4 1 7 -37 7 -84z m-69 -142 c68
-44 69 -44 69 -88 l0 -45 -90 0 -90 0 0 100 c0 116 -11 113 111 33z m-191 -38
l0 -95 -95 0 -95 0 0 35 c0 32 6 38 88 94 48 33 90 60 95 60 4 1 7 -42 7 -94z
m390 -90 c0 -3 -9 -5 -20 -5 -11 0 -20 7 -20 15 0 13 4 14 20 5 11 -6 20 -13
20 -15z m-660 -141 l0 -54 -42 0 -43 0 3 58 4 57 39 -3 39 -4 0 -54z m270 1
l0 -55 -95 0 -95 0 0 55 0 55 95 0 95 0 0 -55z m260 0 l0 -55 -90 0 -90 0 0
55 0 55 90 0 90 0 0 -55z m170 0 l0 -55 -46 0 -46 0 6 31 c3 17 6 42 6 55 0
21 5 24 40 24 l40 0 0 -55z m-108 -260 c-92 -83 -118 -187 -68 -276 14 -24 23
-46 20 -51 -6 -10 -474 -11 -474 0 0 4 12 30 26 57 20 40 25 59 20 97 -8 74
-63 164 -121 200 -29 18 -24 18 309 18 l338 0 -50 -45z m-150 -512 c66 -30
133 -95 165 -162 23 -47 27 -70 28 -141 0 -73 -4 -93 -28 -141 -101 -206 -373
-254 -533 -95 -144 145 -122 403 43 508 99 62 227 74 325 31z m-5437 -418 c26
-60 60 -136 76 -167 l29 -58 -2 -791 -3 -791 -117 97 -118 98 0 991 1 991 43
-130 c25 -72 65 -180 91 -240z m10565 -784 l0 -869 -109 -91 c-60 -50 -112
-91 -115 -91 -3 0 -6 329 -6 731 l0 731 34 57 c46 76 138 262 167 339 13 34
25 62 26 62 2 0 3 -391 3 -869z m-10239 215 l69 -91 0 -682 c0 -376 -3 -683
-7 -683 -4 0 -58 39 -120 86 l-113 86 0 771 0 771 51 -83 c28 -46 82 -124 120
-175z m9949 -614 l0 -709 -117 -88 -118 -88 -3 652 -2 653 56 61 c31 34 84 99
118 144 33 46 62 83 64 83 1 0 2 -319 2 -708z m-9598 233 c11 -14 10 -1263 -1
-1269 -5 -3 -42 17 -82 45 -41 28 -91 62 -111 76 l-38 26 0 676 0 676 112
-110 c62 -61 116 -114 120 -120z m9304 -1152 c-7 -17 -217 -156 -224 -148 -4
4 -8 280 -10 614 l-3 608 33 25 c18 14 71 60 118 102 l85 76 3 -633 c1 -347 0
-637 -2 -644z m-9068 978 l62 -42 -1 -512 c-1 -282 -4 -563 -8 -624 l-6 -113
-112 73 -113 72 0 638 0 638 58 -44 c31 -24 85 -63 120 -86z m8782 -560 l0
-620 -112 -70 -113 -70 -6 132 c-4 73 -7 347 -8 609 l-1 477 118 79 c64 44
118 80 120 81 1 0 2 -278 2 -618z m-8495 390 l60 -37 0 -584 c0 -322 -2 -604
-5 -626 l-5 -42 -112 65 -113 65 0 630 0 630 58 -33 c31 -17 84 -48 117 -68z
m8205 -575 l0 -614 -110 -62 c-61 -34 -113 -60 -116 -57 -3 3 -8 279 -11 614
l-6 610 59 36 c55 33 160 84 177 86 4 1 7 -275 7 -613z m-7965 438 l115 -66 0
-624 0 -625 -120 63 -120 63 0 628 c0 345 2 627 5 627 3 0 57 -30 120 -66z
m7668 -1215 c-5 -4 -56 -33 -115 -64 l-108 -57 0 129 c-1 70 -2 346 -3 613
l-2 484 115 68 115 67 3 -616 c1 -339 -1 -620 -5 -624z m-7378 1048 l110 -63
3 -611 2 -612 -107 50 c-60 28 -111 54 -115 57 -10 10 -22 1242 -12 1242 5 0
59 -28 119 -63z m7088 -1198 c-12 -11 -214 -101 -218 -97 -2 1 -6 267 -10 589
-5 499 -4 587 8 597 8 7 61 39 118 72 l104 60 3 -607 c1 -334 -1 -610 -5 -614z
m-6740 999 l57 -33 0 -587 c0 -324 -2 -588 -5 -588 -3 0 -55 21 -115 47 l-110
46 0 61 c0 34 -2 308 -6 610 l-6 548 64 -36 c35 -20 89 -51 121 -68z m6457
-540 l0 -593 -113 -47 c-61 -25 -113 -45 -113 -45 -1 1 -4 259 -8 573 l-5 571
112 66 c62 36 115 66 120 66 4 1 7 -266 7 -591z m-6225 406 l115 -67 0 -558
c0 -348 -4 -559 -10 -559 -5 0 -57 18 -115 41 l-105 40 0 122 c0 67 -2 330 -5
585 -3 254 -3 462 0 462 3 0 57 -30 120 -66z m5935 -552 l0 -567 -113 -43
c-63 -23 -117 -42 -120 -42 -4 0 -7 245 -7 544 l0 544 113 66 c61 36 115 66
120 66 4 0 7 -255 7 -568z m-5645 384 l110 -63 3 -527 c1 -289 -1 -526 -5
-526 -5 0 -56 16 -115 36 l-108 36 0 36 c0 20 -1 270 -3 555 -1 284 0 517 3
517 3 0 55 -29 115 -64z m5347 -478 c-1 -271 -2 -513 -2 -538 l0 -46 -102 -33
c-57 -19 -109 -36 -116 -38 -10 -4 -12 99 -10 508 l3 513 110 63 c61 35 112
63 115 63 3 0 4 -222 2 -492z m-5010 284 l68 -37 0 -487 c0 -269 -3 -488 -7
-488 -5 0 -56 14 -115 32 l-108 31 0 81 c0 45 -1 280 -3 522 l-2 442 50 -30
c28 -15 80 -45 117 -66z m4718 -79 c2 -498 -1 -878 -7 -883 -5 -4 -28 -12 -53
-20 -25 -7 -73 -21 -108 -31 l-62 -18 2 472 3 471 105 62 c58 34 108 63 113
63 4 1 7 -52 7 -116z m-4360 -570 c0 -419 -1 -444 -17 -439 -10 3 -57 15 -104
26 -47 12 -91 25 -97 29 -10 6 -16 405 -12 898 l0 61 115 -65 115 -66 0 -444z
m4070 485 c1 -31 1 -476 0 -754 l0 -130 -95 -23 c-52 -13 -104 -25 -115 -28
-20 -5 -20 -1 -20 418 l0 424 108 62 c59 34 110 62 115 63 4 0 7 -15 7 -32z
m-6522 -69 c5 -46 22 -63 22 -20 0 18 4 31 8 29 4 -1 65 -37 135 -78 119 -70
127 -77 127 -105 0 -17 4 -35 9 -40 6 -6 -58 -126 -161 -305 -93 -162 -280
-488 -415 -723 -258 -450 -271 -468 -284 -382 -6 38 -6 38 -8 8 0 -18 -3 -33
-5 -33 -3 0 -66 36 -140 80 -135 80 -136 81 -137 118 l-2 37 -6 -32 -6 -32
-53 32 c-29 18 -50 37 -48 43 4 10 457 709 781 1204 59 91 119 182 132 203 28
45 47 44 51 -4z m9025 -340 c607 -943 690 -1073 691 -1087 1 -18 -382 -252
-414 -252 -4 0 -28 35 -52 78 -24 42 -203 354 -398 692 -194 338 -368 640
-385 671 -31 53 -31 57 -14 67 26 17 29 15 30 -15 2 -26 2 -25 8 5 5 30 18 41
138 112 l132 78 4 -26 c3 -23 4 -22 6 6 0 22 5 32 14 30 6 -3 115 -164 240
-359z m-6355 242 l72 -42 0 -389 c0 -305 -3 -390 -12 -390 -13 0 -210 42 -216
45 -2 2 -3 373 -2 743 l0 124 43 -25 c23 -13 75 -43 115 -66z m3563 -352 c0
-211 -1 -396 -1 -410 0 -24 -5 -27 -102 -47 -57 -12 -109 -22 -115 -22 -10 0
-13 80 -13 368 l0 367 113 66 c61 36 113 65 115 64 1 -1 3 -175 3 -386z
m-5897 283 c2 -4 -2 -16 -10 -27 -13 -18 -14 -18 -14 8 0 25 13 36 24 19z
m2589 -77 l107 -60 0 -338 c0 -317 -1 -338 -17 -333 -10 2 -62 12 -115 21
l-98 17 0 380 c0 209 4 378 8 376 4 -1 56 -30 115 -63z m-2429 -11 c77 -41 86
-49 86 -74 0 -16 5 -32 10 -35 6 -4 10 7 10 24 l0 31 75 -37 c41 -21 75 -40
75 -44 0 -3 -93 -197 -206 -430 -113 -233 -225 -464 -249 -514 -154 -324 -276
-565 -284 -565 -6 0 -11 -11 -11 -25 0 -14 -3 -25 -6 -25 -4 0 -65 30 -135 67
-127 66 -129 67 -131 102 l-1 36 -4 -33 -4 -32 -77 40 c-42 22 -83 44 -90 49
-10 6 41 103 214 402 124 217 287 500 362 629 219 380 277 480 278 480 1 0 41
-21 88 -46z m8074 -314 c109 -190 303 -527 431 -749 212 -368 231 -405 215
-415 -41 -24 -430 -226 -436 -226 -5 0 -8 12 -8 26 0 14 -4 23 -9 20 -7 -4
-730 1471 -739 1508 -2 9 154 96 173 96 3 0 6 -12 6 -27 2 -26 2 -25 8 5 5 29
15 39 76 71 39 21 73 38 77 37 4 0 97 -156 206 -346z m-2627 -21 c0 -193 -2
-353 -3 -354 -2 -2 -54 -12 -115 -23 l-113 -19 0 312 0 312 112 66 c62 36 114
64 116 62 2 -2 3 -162 3 -356z m-2730 179 l109 -62 0 -273 c0 -212 -3 -273
-12 -273 -7 0 -56 7 -108 15 -52 8 -98 15 -102 15 -9 0 -11 640 -2 640 4 0 55
-28 115 -62z m2439 -209 c1 -118 1 -250 0 -295 l0 -81 -92 -12 c-51 -6 -103
-14 -116 -17 l-22 -4 2 251 3 251 110 64 c60 34 111 62 112 60 2 -2 3 -99 3
-217z m-4780 144 c0 -18 5 -33 10 -33 6 0 10 11 10 25 0 14 3 25 6 25 3 0 64
-26 135 -57 125 -55 129 -58 129 -87 0 -35 -590 -1596 -603 -1596 -5 0 -62 23
-128 51 l-119 51 0 35 c0 20 -4 32 -10 28 -5 -3 -10 -17 -10 -30 0 -23 -2 -23
-110 27 -62 29 -110 57 -108 64 2 6 171 358 377 782 369 761 374 770 397 760
18 -9 24 -19 24 -45z m7454 -733 c207 -426 376 -777 376 -781 0 -5 -147 -76
-201 -97 -4 -2 -9 9 -12 25 -4 28 -4 28 -6 -3 -1 -31 -5 -34 -120 -83 -66 -28
-127 -54 -135 -57 -12 -5 -16 1 -17 22 0 21 -2 24 -7 12 -5 -10 -56 113 -146
350 -77 202 -213 560 -303 795 -90 235 -163 430 -163 433 0 2 10 8 23 13 19 7
23 5 28 -18 7 -26 7 -26 8 4 1 28 7 33 119 82 163 73 152 70 153 37 2 -27 2
-27 6 -4 5 34 13 54 18 49 2 -3 173 -353 379 -779z m-4821 630 l107 -62 0
-206 0 -205 -77 7 c-43 4 -95 10 -115 13 l-38 6 0 259 c0 142 3 257 8 255 4
-2 55 -32 115 -67z m1857 -224 l0 -233 -82 -7 c-46 -4 -98 -9 -116 -13 l-32
-5 2 183 3 183 105 62 c58 34 108 63 113 63 4 1 7 -104 7 -233z m-3960 134
c38 -15 45 -22 48 -49 4 -37 22 -42 22 -5 0 17 4 24 13 21 6 -2 41 -15 77 -27
36 -13 69 -27 74 -31 5 -4 2 -27 -7 -51 -8 -24 -65 -187 -125 -363 -317 -923
-419 -1215 -425 -1221 -2 -2 -44 11 -93 29 -85 31 -89 34 -92 65 -4 38 -22 44
-22 7 0 -14 -3 -25 -7 -25 -21 0 -223 84 -223 93 0 5 136 366 301 801 166 435
304 796 306 803 4 9 19 6 56 -8 29 -12 72 -29 97 -39z m6418 -743 c167 -436
305 -801 308 -812 5 -20 -22 -33 -178 -90 -13 -5 -17 1 -21 27 l-4 33 -1 -35
-2 -36 -102 -36 c-57 -21 -109 -39 -116 -40 -9 -2 -22 21 -37 62 -33 90 -533
1542 -537 1558 -2 9 37 28 112 56 l115 43 4 -26 4 -26 6 29 c5 25 16 34 71 57
36 15 67 28 71 28 3 1 141 -356 307 -792z m-4028 670 l105 -62 3 -137 3 -137
-48 4 c-26 3 -78 7 -115 11 l-68 6 0 189 c0 104 3 189 8 188 4 0 54 -28 112
-62z m1280 -157 c0 -120 -3 -162 -12 -165 -7 -2 -59 -6 -115 -10 l-103 -6 0
108 0 108 108 62 c59 34 110 62 115 62 4 1 7 -71 7 -159z m-3330 80 c0 -35 17
-41 22 -7 l3 24 133 -41 c130 -40 132 -41 133 -71 l2 -30 4 28 c2 15 9 27 14
27 14 0 13 -6 -37 -177 -44 -149 -172 -595 -349 -1208 -43 -148 -81 -273 -84
-277 -4 -4 -30 0 -59 9 -46 15 -52 20 -52 45 0 15 -4 28 -10 28 -5 0 -10 -12
-10 -26 0 -29 13 -31 -157 24 l-111 36 -5 35 c-4 34 31 142 288 881 18 52 78
226 133 385 122 353 119 345 132 345 5 0 10 -13 10 -30z m5330 -35 c47 -128
540 -1564 540 -1572 0 -7 -212 -83 -232 -83 -4 0 -9 12 -11 28 -4 26 -4 26 -6
-4 -1 -30 -4 -32 -75 -53 -41 -11 -81 -23 -88 -26 -10 -4 -18 12 -30 52 -15
56 -227 792 -386 1339 l-79 271 49 16 48 15 2 -31 1 -32 4 32 c4 32 7 33 111
67 59 20 113 35 121 33 7 -1 21 -24 31 -52z m-2989 -57 l109 -62 0 -58 0 -58
-32 0 c-18 0 -70 3 -115 7 l-83 6 0 113 c0 63 3 114 6 114 4 0 55 -28 115 -62z
m695 -165 c-3 -3 -55 -8 -116 -11 l-110 -5 0 29 c0 27 10 35 113 95 l112 65 3
-84 c2 -47 1 -87 -2 -89z m-2545 135 c75 -20 79 -23 79 -50 0 -15 5 -28 10
-28 6 0 10 11 10 25 0 14 3 25 8 25 15 -1 154 -39 160 -44 3 -4 -20 -120 -52
-259 -32 -138 -73 -319 -92 -402 -115 -509 -233 -1018 -237 -1022 -3 -2 -20 0
-38 5 -26 6 -35 15 -40 38 l-7 29 -1 -28 c-1 -22 -5 -27 -18 -23 -10 3 -56 14
-103 26 -141 35 -150 39 -150 65 0 13 -4 27 -10 30 -6 4 -10 -5 -10 -21 0 -25
-2 -26 -32 -20 -18 3 -36 10 -41 15 -4 4 22 111 58 237 37 126 143 492 236
814 93 322 171 591 174 598 6 16 4 16 96 -10z m4629 -783 c128 -440 236 -813
241 -830 11 -37 11 -35 0 -35 -5 0 -12 12 -14 28 -4 25 -4 25 -6 -5 0 -18 -3
-33 -6 -33 -3 0 -64 -15 -135 -34 l-130 -35 -2 32 -1 32 -4 -32 c-4 -35 -9
-37 -120 -61 -35 -8 -43 -7 -43 5 0 14 -43 205 -261 1158 -61 264 -111 489
-112 499 -2 17 16 24 126 51 l127 33 2 -32 1 -31 4 32 c4 29 9 34 51 47 26 7
48 13 49 12 1 0 106 -361 233 -801z m-2495 648 c17 -11 11 -13 -48 -13 l-67 0
0 40 0 41 48 -27 c26 -15 56 -34 67 -41z m-1765 17 c0 -16 5 -30 10 -30 6 0
10 11 10 25 0 14 4 25 9 25 4 0 63 -11 131 -25 68 -14 124 -25 126 -25 2 0 4
-13 4 -30 0 -16 5 -30 10 -30 8 0 10 -81 7 -252 l-3 -253 -92 -579 c-51 -319
-94 -581 -95 -583 -2 -1 -23 1 -48 5 -38 6 -44 11 -47 35 -4 34 -22 36 -22 2
0 -21 -4 -25 -22 -20 -13 2 -74 14 -135 26 -113 22 -113 22 -113 50 0 16 -4
29 -10 29 -5 0 -10 -11 -10 -25 0 -14 -5 -25 -11 -25 -26 0 -99 23 -99 32 0
11 112 507 140 618 10 41 69 297 131 568 62 270 116 492 121 492 4 0 8 -13 8
-30z m3754 -718 c92 -405 179 -782 191 -837 13 -55 21 -103 18 -107 -11 -19
-33 -6 -34 20 l-1 27 -7 -30 c-7 -32 -4 -31 -240 -78 -29 -6 -31 -5 -33 26
l-1 32 -4 -32 c-4 -29 -9 -33 -51 -42 -26 -5 -69 -13 -97 -16 l-50 -7 -43 284
-43 283 2 560 c1 308 4 573 8 590 6 28 11 30 86 46 44 9 91 17 105 18 l25 1
169 -738z m-1864 698 c0 -5 -8 -10 -17 -10 -15 0 -16 2 -3 10 19 12 20 12 20
0z m1197 -1333 c-1 -226 -2 -41 -2 413 0 454 1 639 2 412 2 -226 2 -598 0
-825z m-2487 403 c0 -540 -3 -820 -10 -820 -7 0 -10 280 -10 820 0 540 3 820
10 820 7 0 10 -280 10 -820z m490 760 c475 -39 927 -38 1413 1 81 7 149 10
152 8 10 -10 162 -1604 153 -1610 -11 -7 -216 -24 -468 -40 -233 -14 -868 -14
-1105 1 -225 14 -474 36 -482 43 -4 5 137 1452 153 1574 6 39 8 42 33 38 14
-3 82 -9 151 -15z m-780 -1211 c0 -224 -3 -338 -10 -334 -6 4 -10 -6 -10 -22
0 -27 -2 -28 -40 -25 -22 2 -43 8 -46 13 -3 5 15 140 40 301 24 161 48 319 51
351 4 31 9 57 11 57 2 0 4 -153 4 -341z"/>
<path d="M10035 20044 c-88 -6 -175 -13 -192 -13 -32 -1 -33 -3 -33 -41 l0
-40 54 0 c30 0 66 -4 80 -10 33 -12 62 -60 70 -114 8 -55 47 -599 43 -602 -3
-3 -418 398 -692 668 l-101 98 -184 -12 -185 -13 -3 -37 -3 -38 42 0 c24 0 62
-9 85 -20 80 -39 75 -17 105 -453 34 -469 34 -492 11 -537 -17 -34 -41 -46
-134 -65 -24 -5 -28 -10 -28 -40 0 -18 3 -36 8 -38 4 -2 115 4 247 14 132 10
246 18 253 18 9 1 12 13 10 39 l-3 37 -67 6 c-74 6 -94 18 -115 68 -14 33 -68
687 -61 737 2 17 95 -68 456 -417 419 -405 456 -439 488 -439 30 0 34 3 34 28
0 15 -16 248 -34 517 -36 508 -36 560 0 596 11 10 42 23 69 30 28 6 56 13 63
15 7 2 12 19 12 39 l0 35 -67 -1 c-38 -1 -140 -8 -228 -15z"/>
<path d="M11030 19994 c-128 -25 -259 -94 -346 -185 -72 -77 -114 -148 -146
-249 -33 -106 -33 -293 -1 -395 40 -127 129 -244 243 -320 122 -81 276 -125
438 -125 382 1 652 272 652 654 0 91 -29 208 -72 289 -41 78 -153 190 -238
240 -116 67 -204 90 -365 93 -77 1 -151 0 -165 -2z m338 -139 c162 -73 244
-247 228 -485 -16 -251 -114 -435 -269 -506 -54 -25 -74 -28 -152 -28 -115 0
-183 26 -260 95 -98 90 -141 225 -132 409 12 226 82 387 209 482 70 53 125 68
228 65 68 -3 98 -9 148 -32z"/>
<path d="M12171 19839 c-6 -18 -11 -34 -11 -36 0 -2 26 -15 57 -29 77 -34 93
-50 93 -94 0 -42 -229 -800 -260 -861 -36 -70 -57 -76 -194 -57 -14 2 -22 -6
-28 -31 -5 -18 -8 -35 -6 -36 2 -2 112 -37 246 -78 l243 -75 10 25 c16 42 10
51 -45 76 -70 32 -90 62 -83 125 5 50 198 694 206 687 2 -3 43 -226 91 -496
58 -328 92 -494 101 -500 8 -5 21 -9 30 -9 9 0 178 169 374 375 197 207 359
374 361 372 4 -4 -183 -627 -211 -703 -9 -23 -27 -52 -41 -64 -24 -23 -27 -24
-96 -12 -39 7 -73 10 -75 8 -3 -3 -6 -19 -6 -37 l-2 -33 285 -88 c157 -48 286
-88 286 -88 1 0 5 11 8 24 3 13 8 31 11 39 4 10 -8 19 -39 31 -69 27 -96 52
-96 91 0 34 241 838 266 887 25 48 56 61 114 49 73 -16 75 -15 87 24 l11 35
-126 39 c-70 22 -164 51 -210 65 l-83 25 -27 -29 c-15 -16 -164 -176 -332
-355 -271 -288 -306 -323 -312 -303 -4 13 -44 228 -88 478 -45 250 -85 459
-89 463 -7 7 -386 126 -403 127 -3 0 -11 -14 -17 -31z"/>
<path d="M8000 19810 c-375 -101 -576 -403 -505 -758 20 -96 78 -220 138 -294
120 -146 341 -232 550 -213 235 20 440 130 553 296 80 118 99 186 98 349 0
121 -3 143 -28 215 -68 197 -206 335 -396 397 -97 31 -307 35 -410 8z m287
-129 c122 -58 209 -180 260 -367 36 -132 38 -307 5 -396 -41 -113 -97 -174
-207 -225 -52 -24 -72 -28 -155 -28 -88 0 -101 3 -162 33 -85 42 -147 110
-197 216 -88 185 -110 402 -57 553 73 207 313 307 513 214z"/>
<path d="M6651 19370 c-298 -115 -545 -211 -548 -213 -5 -6 96 -308 108 -321
4 -4 23 -3 43 4 l36 11 -3 87 c-3 136 20 164 190 233 53 22 97 38 98 37 6 -9
335 -877 340 -898 8 -35 -24 -74 -88 -107 -29 -14 -53 -26 -55 -28 -7 -6 22
-65 32 -65 6 0 135 47 286 105 151 58 281 107 287 110 10 3 10 10 1 32 -19 44
-24 46 -74 29 -84 -28 -126 -21 -151 27 -34 67 -342 882 -335 888 12 12 174
66 220 74 73 12 123 -22 209 -144 6 -8 83 20 83 30 0 9 -130 320 -134 319 0
-1 -246 -95 -545 -210z"/>
<path d="M5685 18950 c-99 -60 -184 -111 -190 -113 -6 -3 -2 -19 9 -40 l19
-36 48 24 c84 43 110 29 129 -70 11 -59 90 -708 87 -712 -3 -3 -661 418 -679
434 -10 9 -18 24 -18 34 0 16 51 61 98 88 10 6 9 14 -5 39 -10 18 -21 32 -25
32 -9 0 -459 -269 -476 -285 -12 -10 -11 -18 2 -44 17 -32 26 -37 41 -22 6 5
27 14 47 20 32 11 44 9 95 -12 32 -13 282 -166 557 -340 421 -267 502 -315
518 -306 10 6 21 16 24 24 3 7 -26 268 -65 579 -39 311 -71 591 -71 622 0 54
2 59 42 97 40 38 41 40 25 65 -8 15 -19 28 -24 29 -4 1 -89 -47 -188 -107z"/>
<path d="M14275 18654 c-628 -467 -616 -460 -717 -419 -21 8 -56 -51 -40 -67
13 -13 362 -198 373 -198 9 0 43 60 37 64 -2 1 -20 13 -41 25 -43 26 -61 54
-52 82 5 16 155 144 202 172 7 5 103 -40 230 -108 120 -64 218 -117 218 -118
1 -1 -2 -62 -6 -136 -6 -114 -10 -136 -27 -153 l-20 -20 -58 26 c-31 14 -58
25 -59 24 -1 -2 -10 -17 -19 -35 l-16 -32 42 -24 c101 -58 449 -239 452 -236
2 2 11 18 19 35 l16 32 -39 26 c-25 16 -42 36 -45 54 -4 15 -8 35 -10 45 -2
11 5 292 16 625 l20 606 -23 18 c-13 10 -27 18 -33 18 -5 0 -194 -138 -420
-306z m234 -205 c-6 -123 -12 -225 -13 -226 -5 -6 -335 173 -333 180 2 8 350
275 355 272 1 -1 -3 -103 -9 -226z"/>
<path d="M15791 18244 l-21 -26 45 -45 c53 -53 64 -85 42 -122 -36 -60 -582
-724 -603 -733 -30 -14 -60 -5 -115 32 l-44 30 -22 -26 c-13 -14 -23 -28 -23
-33 0 -13 494 -408 583 -466 295 -192 594 -192 814 0 102 90 184 247 198 380
19 176 -73 383 -248 563 -66 68 -559 472 -576 472 -5 0 -19 -12 -30 -26z m329
-355 c68 -41 213 -200 247 -269 78 -162 67 -339 -30 -486 -54 -82 -141 -160
-225 -201 -72 -36 -80 -38 -171 -37 -82 0 -107 5 -172 31 -42 16 -110 52 -150
79 -75 50 -159 124 -159 140 0 10 247 317 259 322 14 5 116 -79 128 -106 7
-15 12 -59 13 -98 0 -61 3 -72 18 -76 14 -4 40 22 106 109 79 103 87 117 73
130 -13 14 -20 14 -61 -2 -64 -24 -103 -15 -175 41 -34 26 -61 50 -61 53 0 9
311 391 319 391 3 0 22 -10 41 -21z"/>
<path d="M4273 18061 l-21 -18 114 -509 c162 -721 165 -745 109 -804 -22 -23
-25 -32 -16 -47 26 -49 30 -47 191 78 207 161 195 148 166 183 l-23 30 -30
-22 c-90 -64 -112 -49 -153 108 -16 63 -30 120 -30 127 0 7 82 76 183 154 100
78 187 146 194 151 15 12 219 -90 252 -126 27 -29 19 -51 -34 -92 -19 -14 -35
-30 -35 -35 0 -4 10 -20 23 -34 l22 -26 200 156 c258 201 242 185 213 220
l-24 27 -34 -21 c-45 -27 -82 -26 -150 3 -30 13 -284 134 -563 270 -279 135
-513 246 -520 246 -7 -1 -22 -9 -34 -19z m575 -496 c4 -4 -291 -235 -299 -235
-4 0 -9 12 -12 28 -3 15 -26 113 -50 219 l-44 192 201 -101 c111 -55 202 -102
204 -103z"/>
<path d="M3249 16935 c-126 -32 -266 -115 -391 -233 -60 -57 -425 -467 -467
-525 -12 -17 -11 -22 12 -44 l25 -26 54 47 c60 52 90 58 134 24 55 -43 639
-550 672 -584 20 -21 32 -44 32 -61 0 -28 -50 -110 -104 -171 -54 -59 -43 -59
-692 7 -325 34 -604 61 -620 61 -22 0 -34 -7 -45 -27 l-16 -28 287 -448 c158
-247 307 -483 330 -524 50 -86 63 -157 37 -197 -16 -24 -15 -25 16 -45 25 -16
34 -17 43 -8 6 7 60 90 119 186 l108 174 -24 18 c-13 10 -28 19 -32 19 -5 0
-28 -21 -52 -47 -43 -47 -44 -48 -71 -33 -35 19 -167 209 -159 228 13 33 250
404 261 409 16 6 232 -23 267 -36 35 -13 35 -41 1 -101 l-25 -44 23 -18 c13
-10 28 -18 35 -18 6 0 77 105 157 233 135 213 162 250 346 462 111 127 219
253 240 281 245 314 265 649 53 883 -63 70 -163 139 -248 171 -76 29 -224 36
-306 15z m116 -220 c90 -24 172 -73 250 -150 138 -136 179 -290 124 -464 -38
-120 -211 -354 -251 -339 -12 5 -491 418 -660 570 l-78 69 15 29 c23 45 169
185 232 223 119 71 248 93 368 62z m-801 -1585 c3 -4 -182 -309 -198 -327 -2
-3 -246 372 -246 379 0 5 438 -46 444 -52z"/>
<path d="M17452 16790 l-23 -19 25 -44 c20 -34 26 -57 26 -103 l0 -59 -342
-256 c-189 -141 -357 -264 -375 -273 -57 -29 -88 -21 -148 34 l-53 51 -28 -24
-28 -25 89 -118 c49 -66 119 -158 155 -206 l67 -86 29 23 28 23 -27 50 c-34
62 -35 105 -2 148 27 36 583 459 592 450 3 -2 -49 -283 -115 -622 -116 -591
-120 -618 -104 -640 9 -13 21 -24 25 -24 4 0 191 138 415 307 224 168 427 315
450 325 56 25 82 18 141 -37 l48 -45 31 23 31 23 -157 206 -156 207 -28 -20
c-34 -25 -34 -30 -3 -78 52 -77 41 -125 -43 -196 -59 -49 -466 -355 -469 -351
-1 1 46 246 105 543 l109 541 -109 144 c-61 78 -115 144 -121 145 -7 2 -22 -6
-35 -17z"/>
<path d="M18448 15485 c-26 -15 -27 -16 -12 -50 20 -48 18 -78 -10 -133 -13
-26 -182 -262 -375 -525 -330 -448 -350 -478 -339 -502 8 -19 19 -25 42 -25
17 0 292 14 611 31 652 35 634 36 676 -35 l21 -36 31 16 c18 9 33 18 35 19 5
4 -197 405 -204 405 -6 0 -64 -30 -64 -33 0 -2 9 -29 20 -60 22 -61 17 -88
-16 -101 -33 -13 -768 -55 -778 -45 -4 4 260 365 410 562 88 115 101 119 150
44 17 -26 34 -50 37 -54 7 -6 67 16 68 26 1 15 -257 511 -266 510 -5 0 -22 -6
-37 -14z"/>
<path d="M1623 14375 c-185 -40 -360 -202 -483 -445 -18 -36 -86 -195 -151
-355 -117 -287 -117 -290 -96 -302 39 -22 56 -15 78 30 28 56 58 87 83 87 20
0 798 -309 862 -343 60 -31 70 -69 40 -154 -8 -24 -11 -45 -6 -48 10 -6 -6
-67 -32 -118 -21 -43 -57 -61 -102 -51 -93 19 -854 228 -878 240 -15 8 -31 26
-34 40 -6 25 0 99 11 140 5 17 0 22 -30 31 -33 11 -37 10 -45 -10 -14 -35
-163 -597 -159 -602 2 -2 20 -6 39 -10 l36 -6 17 54 c24 76 50 107 91 107 39
0 872 -222 914 -244 39 -20 46 -53 29 -134 -8 -35 -11 -64 -8 -66 3 -2 20 -7
38 -10 37 -9 26 -39 123 328 39 147 69 275 66 283 -3 8 51 154 120 326 69 171
137 352 149 403 60 235 37 429 -72 587 -83 123 -216 208 -375 241 -91 19 -141
19 -225 1z m162 -256 c82 -16 208 -83 270 -143 82 -81 117 -161 122 -285 4
-79 0 -113 -20 -191 -29 -112 -80 -230 -99 -230 -11 0 -413 161 -897 357 -22
10 -6 68 50 180 95 192 228 299 400 322 57 8 92 6 174 -10z"/>
<path d="M19170 14079 c-13 -6 -25 -11 -26 -12 -2 -1 4 -28 11 -61 16 -66 9
-97 -28 -121 -33 -21 -832 -296 -880 -303 -47 -6 -78 20 -103 85 -16 42 -19
44 -48 39 -17 -4 -34 -10 -38 -14 -4 -4 74 -245 174 -535 l181 -527 56 0 c31
0 113 3 182 7 l126 6 -15 48 c-15 45 -17 47 -61 54 -138 21 -222 92 -284 239
-48 115 -109 304 -105 329 2 16 42 33 215 93 117 40 214 70 217 66 17 -30 116
-358 116 -385 0 -28 -8 -42 -39 -70 -21 -19 -48 -38 -60 -42 -12 -3 -21 -10
-21 -14 0 -9 21 -74 26 -79 2 -4 424 138 433 145 2 1 -2 21 -9 43 l-13 40 -63
-6 c-106 -11 -117 2 -204 254 -44 127 -51 155 -39 163 12 7 277 100 346 120
13 4 26 2 31 -4 22 -29 134 -386 139 -444 l6 -63 -44 -42 c-24 -24 -53 -48
-64 -54 -18 -10 -18 -14 -7 -52 7 -23 16 -42 21 -42 10 0 250 88 266 98 14 9
-342 1052 -359 1051 -6 0 -22 -5 -36 -10z"/>
<path d="M19637 12761 c-27 -6 -29 -9 -30 -63 -2 -56 -4 -60 -57 -112 -30 -30
-262 -208 -515 -396 -411 -306 -460 -345 -458 -368 1 -14 6 -28 10 -32 4 -4
249 -67 543 -139 294 -73 562 -141 596 -152 69 -22 96 -47 114 -102 8 -27 16
-37 27 -33 8 3 23 6 34 6 25 0 25 6 -16 237 -19 108 -35 201 -35 205 0 11 -51
10 -68 -1 -10 -6 -12 -21 -7 -52 4 -24 2 -56 -4 -71 -9 -25 -16 -28 -53 -28
-42 -1 -748 170 -748 180 1 4 341 259 559 418 113 81 128 81 157 -8 20 -62 22
-65 50 -62 16 2 32 7 36 11 4 3 -15 132 -42 286 -27 154 -50 281 -50 283 0 2
-6 2 -43 -7z"/>
<path d="M576 12188 c-9 -48 -8 -54 19 -66 34 -16 32 -36 -15 -134 -70 -147
-86 -254 -55 -373 51 -196 250 -296 429 -216 64 28 142 105 244 240 114 152
208 246 260 262 99 29 201 -37 221 -143 18 -101 -33 -246 -112 -313 -50 -44
-130 -86 -209 -111 -52 -16 -58 -20 -58 -45 0 -15 -3 -35 -6 -43 -6 -15 15
-16 212 -14 l219 3 3 43 c2 32 0 42 -12 42 -8 0 -20 9 -26 20 -9 17 -3 39 35
122 60 130 78 216 72 333 -8 148 -58 246 -160 315 -63 42 -116 55 -200 48
-114 -9 -217 -91 -368 -291 -161 -214 -233 -274 -311 -264 -84 11 -123 65
-122 167 2 158 142 308 305 327 27 3 51 9 53 12 2 3 7 25 11 47 l6 42 -178 6
c-98 4 -194 8 -214 10 -34 4 -37 2 -43 -26z"/>
<path d="M1577 11143 c-4 -3 -7 -19 -7 -35 0 -69 -22 -94 -385 -425 l-109
-101 -21 72 c-53 185 -160 274 -317 264 -117 -8 -196 -63 -252 -175 -54 -109
-59 -147 -63 -555 l-5 -378 40 0 39 0 7 61 c5 45 14 67 31 85 l24 24 470 0
c263 0 480 -4 494 -9 29 -11 37 -29 46 -101 l6 -55 38 -3 37 -3 0 300 0 301
-40 0 -40 0 0 -47 c0 -27 -8 -64 -18 -83 -23 -46 -52 -51 -271 -48 l-176 3 -2
40 -2 40 274 235 274 235 1 183 0 182 -33 0 c-19 0 -37 -3 -40 -7z m-719 -512
c75 -38 119 -142 129 -303 l6 -98 -222 0 -221 0 -10 26 c-33 86 13 298 77 356
55 50 164 58 241 19z"/>
<path d="M19264 11110 c-151 -21 -257 -72 -359 -175 -114 -114 -177 -261 -191
-444 -21 -286 115 -553 336 -663 103 -52 175 -68 300 -68 199 0 318 47 445
175 118 117 175 239 194 415 39 357 -155 668 -464 744 -80 20 -186 26 -261 16z
m306 -295 c90 -28 162 -70 212 -122 58 -62 76 -97 93 -181 36 -168 -46 -337
-202 -415 -154 -79 -413 -87 -593 -21 -103 39 -171 98 -217 191 -36 73 -38 82
-37 167 1 120 26 187 99 262 61 62 143 104 251 128 91 21 315 15 394 -9z"/>
<path d="M1304 9774 c3 -9 6 -30 6 -48 0 -29 4 -33 65 -60 76 -33 139 -91 166
-151 33 -75 69 -306 69 -446 0 -47 -1 -48 -32 -54 -65 -10 -421 -45 -425 -41
-7 7 -33 277 -33 347 0 84 19 111 96 136 l56 17 -7 40 c-3 22 -7 42 -9 43 -5
5 -445 -43 -451 -49 -3 -3 -2 -23 3 -44 8 -38 9 -39 60 -45 74 -9 99 -29 116
-92 17 -60 50 -356 41 -365 -7 -7 -300 -41 -362 -41 -40 -1 -41 0 -47 37 -17
113 -38 354 -34 408 5 80 26 110 99 143 59 26 59 26 59 68 0 28 -4 43 -12 43
-7 0 -75 -7 -150 -17 l-138 -16 0 -27 c0 -15 25 -260 55 -546 30 -285 55 -522
55 -526 0 -10 42 -10 64 -2 12 5 16 20 16 64 0 73 5 87 40 105 27 14 829 105
922 105 53 0 83 -31 98 -105 l12 -57 35 5 c20 4 37 7 38 9 3 4 -113 1109 -117
1113 -4 4 -331 65 -347 65 -8 0 -11 -6 -7 -16z"/>
<path d="M18686 9211 c-34 -166 -186 -1065 -183 -1074 7 -15 314 -173 322
-165 3 3 9 22 12 42 5 35 2 40 -59 99 -35 34 -73 80 -83 102 -31 64 -31 200
-1 376 27 157 40 199 65 199 27 0 874 -150 909 -161 51 -17 66 -47 60 -128
l-5 -69 35 -6 c20 -3 37 -4 39 -2 6 6 104 571 101 585 -2 8 -18 18 -36 22 -31
6 -32 6 -47 -44 -20 -68 -39 -94 -73 -102 -28 -6 -851 134 -920 156 -49 16
-65 47 -60 121 l3 63 -37 6 c-34 5 -38 4 -42 -20z"/>
<path d="M631 8299 c-24 -8 -32 -15 -28 -27 2 -9 28 -107 57 -217 30 -110 55
-201 56 -203 1 -2 18 0 37 3 l36 7 -2 76 -2 76 32 9 c24 7 117 -4 395 -48 199
-32 366 -61 371 -64 6 -7 -414 -387 -546 -494 -78 -63 -95 -61 -123 18 -15 41
-27 60 -38 59 -47 -2 -56 -5 -56 -19 0 -15 138 -534 146 -546 2 -4 19 -2 38 3
l34 11 -5 53 c-5 43 -2 59 17 89 13 21 228 220 479 443 384 342 456 410 454
431 -1 13 -6 27 -10 32 -4 4 -271 48 -593 98 -657 103 -664 105 -690 179 -8
23 -17 42 -20 41 -3 0 -20 -5 -39 -10z"/>
<path d="M18470 8047 c0 -3 -81 -240 -180 -528 -145 -419 -178 -525 -168 -535
7 -6 74 -55 148 -108 l135 -96 16 47 16 48 -39 43 c-22 24 -51 68 -65 99 -23
50 -25 65 -21 142 4 69 15 116 53 226 47 139 77 209 93 219 8 5 412 -130 424
-143 8 -7 -88 -285 -122 -351 -26 -52 -48 -62 -127 -59 l-67 2 -13 -38 c-7
-21 -12 -40 -10 -41 1 -2 100 -37 219 -78 l217 -74 10 30 c17 48 14 54 -38 87
-53 35 -75 74 -65 120 12 57 116 361 123 361 12 0 371 -127 378 -133 10 -10
-129 -396 -160 -444 -35 -57 -81 -77 -153 -68 l-51 6 -17 -42 c-9 -23 -16 -43
-14 -44 2 -2 67 -23 145 -48 l142 -45 11 32 c74 207 350 1019 348 1021 -2 1
-18 7 -36 13 l-32 11 -30 -59 c-33 -66 -58 -85 -102 -76 -46 9 -818 276 -861
298 -51 25 -61 56 -43 127 8 31 11 59 7 63 -8 9 -71 22 -71 15z"/>
<path d="M2151 7244 c-25 -11 -32 -18 -26 -31 3 -10 13 -44 22 -75 15 -53 15
-59 -1 -82 -9 -14 -33 -34 -54 -45 -95 -49 -819 -333 -850 -334 -39 -1 -59 18
-98 95 -13 27 -29 48 -35 48 -9 0 -48 -17 -58 -26 -3 -3 211 -540 230 -576 8
-15 13 -15 42 -3 35 15 36 16 12 97 -23 74 -15 103 34 127 50 26 773 320 829
337 60 19 84 5 124 -72 18 -35 38 -64 45 -64 25 0 64 24 59 36 -40 103 -230
571 -235 576 -3 4 -21 0 -40 -8z"/>
<path d="M18255 6674 c-108 -22 -138 -30 -190 -54 -238 -108 -415 -396 -415
-674 0 -50 7 -120 15 -155 69 -291 399 -513 701 -470 148 20 247 72 364 189
88 88 135 157 177 260 79 198 68 425 -30 592 -63 107 -188 211 -319 265 -95
39 -235 60 -303 47z m105 -264 c200 -67 358 -190 423 -328 29 -60 32 -77 32
-157 0 -80 -3 -97 -32 -157 -39 -82 -106 -151 -181 -186 -51 -24 -69 -27 -167
-27 -90 0 -123 4 -180 24 -205 70 -364 191 -432 329 -25 50 -28 68 -28 152 0
86 3 101 31 161 41 86 89 138 164 178 99 53 234 57 370 11z"/>
<path d="M2080 6259 c-238 -132 -449 -247 -468 -255 -78 -32 -121 -17 -182 65
l-26 34 -32 -17 c-18 -9 -32 -18 -32 -20 0 -4 241 -439 246 -445 2 -3 20 3 38
12 l34 16 -25 61 c-29 72 -25 105 16 144 25 24 561 329 568 323 1 -2 -79 -234
-177 -516 -99 -282 -180 -518 -180 -524 0 -10 164 -314 176 -327 3 -2 20 4 39
14 l34 19 -21 40 c-16 33 -19 53 -15 100 3 33 9 63 14 67 26 25 756 421 795
431 44 12 50 11 75 -7 16 -12 42 -39 58 -62 34 -47 40 -48 76 -24 l26 17 -121
217 c-66 119 -124 220 -128 223 -6 6 -68 -21 -68 -29 0 -2 9 -23 20 -47 32
-72 27 -106 -23 -153 -42 -40 -633 -373 -643 -363 -2 2 88 273 202 601 198
575 205 598 190 622 -9 13 -20 24 -24 24 -4 0 -203 -108 -442 -241z"/>
<path d="M17279 5463 c-78 -104 -147 -194 -153 -202 -8 -10 -3 -19 18 -38 l28
-24 48 45 c58 54 85 63 136 41 42 -17 622 -448 608 -451 -5 -1 -290 -26 -634
-55 -616 -53 -625 -54 -647 -78 -13 -13 -23 -27 -22 -30 0 -3 180 -141 400
-306 220 -165 418 -319 440 -342 48 -52 50 -87 10 -160 l-29 -53 25 -20 c14
-11 29 -20 33 -20 8 0 310 395 310 405 0 8 -42 44 -53 45 -4 0 -23 -17 -42
-39 -52 -57 -84 -68 -141 -46 -49 19 -528 374 -518 384 3 3 249 26 547 51
l542 45 103 135 c134 176 128 164 92 190 l-30 21 -37 -39 c-38 -40 -107 -68
-143 -59 -35 9 -700 518 -725 555 -32 47 -32 56 7 132 l31 63 -23 19 c-12 10
-26 18 -31 18 -4 0 -72 -84 -150 -187z"/>
<path d="M2970 4769 c-300 -82 -570 -152 -601 -155 -54 -6 -57 -5 -98 31 l-42
38 -27 -24 c-15 -13 -28 -25 -30 -26 -3 -1 243 -308 274 -342 10 -11 17 -10
44 9 29 21 30 23 15 44 -8 11 -24 39 -35 60 -23 50 -15 68 42 91 53 21 710
196 716 190 4 -4 -254 -577 -309 -686 -15 -31 -35 -59 -44 -63 -11 -4 -34 11
-70 44 l-53 51 -28 -24 -28 -25 144 -178 c244 -302 218 -278 257 -245 l23 19
-25 44 c-14 23 -25 55 -25 69 0 44 31 119 260 624 280 616 257 560 235 585
-10 11 -25 19 -34 19 -9 -1 -261 -68 -561 -150z"/>
<path d="M8452 17329 c-959 -257 -1746 -469 -1749 -473 -3 -3 -3 -12 0 -21 6
-13 360 -15 3529 -13 l3523 3 3 20 c3 23 218 -35 -2523 679 l-1041 271 -1742
-466z m1882 233 c8 -30 6 -36 -23 -66 -31 -32 -31 -33 -12 -50 22 -20 85 -15
118 9 22 18 75 19 91 3 7 -7 12 -27 12 -45 0 -44 -35 -80 -86 -88 -95 -15
-133 -28 -155 -51 -30 -32 -24 -35 96 -64 59 -15 101 -32 120 -48 27 -23 29
-30 28 -84 -1 -66 -15 -107 -50 -156 -40 -54 -75 -66 -189 -64 -197 3 -231 47
-160 208 29 65 32 81 24 113 -5 20 -11 51 -15 69 -3 18 -10 35 -14 38 -31 19
15 148 56 158 26 7 57 57 69 113 5 22 14 33 29 36 40 8 51 2 61 -31z m492 -95
l7 -56 43 -7 c25 -3 47 -11 51 -17 9 -15 -44 -57 -71 -57 -35 0 -53 -50 -38
-104 32 -111 36 -137 24 -157 -7 -10 -12 -48 -12 -83 l0 -64 -50 -11 c-28 -6
-82 -11 -121 -11 -62 0 -73 3 -96 26 -23 24 -25 31 -21 89 7 80 49 161 95 183
31 15 53 53 53 93 0 16 -8 19 -47 19 -53 0 -66 6 -77 34 -11 31 38 96 72 96
43 0 88 34 102 77 20 61 28 66 56 34 16 -19 26 -47 30 -84z m-892 59 c3 -14
12 -31 19 -38 32 -34 44 -128 16 -128 -20 0 -7 -40 21 -63 26 -22 30 -32 30
-76 0 -44 -3 -51 -20 -51 -16 0 -88 51 -98 70 -15 29 -20 32 -40 21 -16 -9
-19 -18 -15 -53 6 -56 -9 -75 -77 -97 -45 -15 -56 -22 -58 -42 -3 -28 32 -89
51 -89 19 0 38 -47 31 -76 -7 -28 -39 -39 -87 -30 -25 5 -37 15 -50 41 -9 20
-17 42 -17 50 0 8 -4 15 -9 15 -5 0 -12 8 -15 18 -6 16 -137 132 -150 132 -3
0 -6 -31 -6 -69 0 -77 -4 -81 -70 -81 -54 0 -64 17 -57 95 4 36 11 74 17 85
14 25 68 60 93 60 11 0 43 20 71 45 29 25 56 45 61 45 4 0 31 15 61 33 41 25
54 38 54 57 0 49 21 99 51 124 27 23 39 26 109 26 74 0 78 -1 84 -24z m1382
-113 c9 -33 8 -92 -1 -145 -11 -66 10 -98 65 -98 38 0 49 -3 124 -35 l39 -16
-6 34 c-4 27 -1 39 13 52 25 23 54 15 60 -15 9 -41 50 -100 75 -106 29 -7 65
11 66 34 0 9 0 38 -1 63 -2 52 17 79 55 79 60 0 66 -21 39 -136 -8 -36 -12
-78 -9 -93 10 -42 40 -71 74 -71 27 0 31 4 41 43 32 122 42 147 66 166 15 12
33 21 41 21 23 0 34 -48 27 -129 -6 -75 -6 -78 20 -98 19 -16 26 -30 26 -57
l0 -36 -122 0 c-68 0 -152 -3 -189 -6 -52 -5 -68 -3 -81 10 -9 9 -28 20 -42
26 -15 5 -26 17 -26 28 0 10 -6 27 -14 37 -13 18 -14 18 -27 -3 -15 -25 -67
-30 -87 -10 -17 17 -15 58 4 80 14 14 15 25 7 50 l-9 33 -13 -40 c-15 -45 -38
-75 -57 -75 -8 0 -16 -12 -20 -27 -24 -109 -20 -103 -75 -103 -52 0 -89 13
-89 31 0 5 11 20 25 32 13 12 27 34 30 48 l7 27 -64 -5 -64 -5 -46 44 c-38 38
-51 44 -76 40 -22 -3 -34 -12 -43 -34 -12 -29 -61 -68 -86 -68 -16 0 -17 55
-2 101 23 66 71 137 98 143 19 4 32 19 49 53 27 58 27 58 2 83 -25 25 -26 56
-2 70 9 5 56 9 105 8 81 -3 88 -5 93 -25z m-2078 -58 c19 -41 15 -57 -33 -115
-25 -30 -45 -58 -45 -61 0 -4 29 -25 64 -48 96 -63 98 -67 84 -135 -12 -62
-24 -74 -58 -56 -25 14 -50 -2 -50 -31 0 -19 -2 -20 -95 -44 -51 -13 -83 -14
-220 -4 -168 12 -180 15 -233 60 -18 16 -37 29 -41 29 -5 0 -15 -22 -22 -50
-24 -94 -60 -53 -79 91 -17 122 -8 150 53 174 23 9 58 32 77 50 19 19 47 38
61 44 25 9 28 7 44 -35 9 -24 28 -53 42 -64 26 -20 26 -21 13 -75 -11 -48 -11
-57 4 -80 12 -18 25 -25 50 -25 39 0 51 12 60 60 5 28 2 39 -14 53 -35 30 -16
107 27 107 7 0 28 20 45 45 42 60 72 59 76 -1 3 -35 -3 -48 -33 -84 -39 -47
-42 -73 -7 -78 15 -2 22 2 22 14 0 9 16 51 35 94 20 44 35 94 35 114 0 63 13
76 74 76 47 0 54 -3 64 -25z m-818 -184 c0 -20 7 -46 15 -59 12 -16 15 -42 13
-104 -3 -77 -5 -83 -25 -86 -12 -2 -29 -14 -37 -28 -15 -22 -23 -24 -92 -24
-78 0 -114 11 -114 35 0 7 -9 16 -19 20 -26 8 -45 58 -37 97 3 17 17 46 31 64
14 18 25 37 25 43 0 6 4 11 9 11 5 0 23 3 40 6 l32 7 -2 -93 c-2 -80 1 -95 16
-107 27 -19 43 -16 70 12 32 31 32 66 0 103 -14 17 -25 36 -25 43 0 8 14 42
32 77 33 62 33 62 51 41 9 -12 17 -38 17 -58z m-347 -65 c37 -34 37 -35 27
-80 -8 -38 -7 -51 6 -71 8 -13 14 -38 12 -57 l-3 -33 -88 -3 -89 -3 6 53 c4
29 7 72 7 96 0 31 6 48 24 67 14 13 25 33 25 45 0 31 31 25 73 -14z m4307 -1
c17 -9 30 -18 30 -21 0 -3 -4 -2 -10 1 -14 9 -12 -9 3 -23 7 -8 12 -41 12 -88
0 -68 -3 -78 -24 -95 -28 -23 -70 -25 -97 -4 -10 8 -34 15 -52 15 -42 0 -72
16 -72 38 0 9 8 36 18 59 12 30 23 43 37 43 28 0 81 34 101 65 19 30 17 29 54
10z m385 -67 c63 -50 82 -62 145 -94 35 -18 40 -69 8 -78 -61 -16 -98 -7 -141
35 -38 36 -46 39 -77 34 -19 -4 -49 -20 -67 -37 -26 -25 -37 -29 -60 -24 -75
19 -99 72 -44 100 18 10 30 26 34 45 10 47 40 71 91 71 37 0 53 -8 111 -52z
m-4922 5 c37 -7 36 -41 -3 -113 -16 -30 -29 -63 -30 -72 0 -17 -18 -18 -240
-18 -132 0 -240 2 -240 4 0 3 4 16 9 29 8 20 19 25 60 31 44 6 57 13 92 51 54
58 88 61 118 9 17 -29 26 -35 49 -32 22 2 32 13 52 56 30 62 45 75 80 67 14
-4 37 -9 53 -12z"/>
<path d="M8035 16293 c-66 -2 -130 -5 -142 -8 -29 -7 -30 -40 -3 -55 21 -11
21 -17 18 -364 l-3 -353 -27 -38 c-15 -21 -25 -42 -22 -47 3 -4 79 -8 170 -8
112 0 170 -4 184 -12 15 -10 22 -10 31 -1 16 16 58 201 51 225 -8 33 -38 19
-71 -32 -34 -52 -78 -92 -122 -108 -31 -12 -44 -5 -58 31 -14 36 -14 292 -1
318 17 31 50 23 96 -26 42 -46 74 -53 74 -15 0 35 -57 180 -71 180 -4 0 -21
-11 -37 -25 -63 -53 -82 -26 -82 119 0 82 3 108 16 120 8 9 20 16 27 16 30 0
101 -47 138 -91 32 -38 47 -49 70 -49 36 0 36 7 2 73 -14 29 -34 75 -44 102
-20 57 -3 53 -194 48z"/>
<path d="M9175 16290 c-11 -5 -78 -9 -148 -9 -106 -1 -129 -4 -134 -17 -3 -8
4 -25 16 -38 21 -22 21 -29 21 -362 0 -348 0 -347 -40 -411 -8 -12 -11 -26 -6
-30 4 -4 83 -9 174 -11 92 -2 171 -7 176 -13 26 -25 41 2 65 123 19 89 16 128
-8 128 -5 0 -30 -28 -54 -63 -52 -73 -124 -120 -154 -101 -10 6 -21 24 -24 40
-8 38 -10 272 -3 301 12 46 59 34 112 -28 26 -31 44 -36 60 -16 12 15 -43 176
-64 184 -8 3 -28 -7 -45 -21 -61 -52 -79 -25 -79 120 0 107 9 134 46 134 39 0
74 -23 131 -84 50 -54 84 -69 99 -45 5 9 -43 128 -85 209 -10 18 -29 22 -56
10z"/>
<path d="M10035 16290 c-11 -5 -78 -9 -148 -9 -109 -1 -129 -3 -134 -18 -4
-10 2 -23 15 -34 22 -17 22 -20 22 -387 0 -360 0 -369 -21 -388 -19 -17 -19
-19 -3 -31 18 -13 120 -18 148 -7 18 7 22 39 6 49 -6 4 -10 82 -10 201 l0 194
30 0 c23 0 42 -11 74 -45 48 -49 57 -53 75 -31 9 11 5 32 -20 96 -17 45 -38
84 -46 87 -8 3 -27 -7 -44 -23 -24 -23 -33 -26 -47 -18 -24 15 -37 118 -26
202 8 63 11 67 36 70 44 5 116 -43 159 -105 9 -13 31 -26 49 -29 31 -7 33 -6
27 17 -6 29 -76 189 -90 207 -11 14 -23 14 -52 2z"/>
<path d="M10837 16278 c-8 -13 -40 -196 -71 -408 -32 -212 -62 -391 -68 -397
-6 -7 -17 -13 -24 -13 -8 0 -14 -6 -14 -14 0 -29 136 -38 147 -10 4 10 -1 20
-11 26 -9 5 -15 17 -12 26 2 9 7 34 11 55 l6 38 72 -3 72 -3 8 -48 c7 -43 5
-50 -15 -67 -35 -29 -9 -40 100 -40 87 0 92 1 92 21 0 15 -5 19 -15 15 -10 -4
-19 2 -24 17 -5 12 -41 198 -81 412 -40 215 -77 396 -83 403 -17 21 -75 15
-90 -10z m57 -420 c15 -90 30 -175 33 -190 l6 -28 -62 0 c-42 0 -61 4 -61 13
-1 35 44 367 49 367 4 0 19 -73 35 -162z"/>
<path d="M6991 16272 c-5 -10 -36 -191 -68 -402 -58 -386 -63 -408 -104 -422
-7 -2 -9 -10 -5 -16 4 -7 34 -12 77 -12 61 0 69 2 69 19 0 11 -5 21 -11 23 -8
3 -9 20 -3 58 l9 55 72 3 71 3 10 -53 c8 -46 6 -55 -10 -70 -35 -32 -22 -38
87 -38 95 0 105 2 105 18 0 13 -7 18 -22 18 -21 -1 -25 15 -96 399 -41 220
-77 407 -82 415 -4 9 -24 16 -48 18 -31 2 -43 -1 -51 -16z m68 -469 l28 -163
-64 0 c-56 0 -64 2 -59 18 2 9 15 100 27 202 20 155 25 179 31 145 5 -22 21
-113 37 -202z"/>
<path d="M10214 16275 c-9 -23 5 -38 22 -24 13 10 14 -37 12 -367 l-3 -379
-24 -33 c-13 -19 -20 -37 -15 -42 5 -5 83 -11 174 -13 91 -2 174 -7 186 -11
26 -9 36 13 60 136 13 71 14 91 4 103 -16 20 -25 13 -66 -51 -35 -54 -122
-124 -155 -124 -9 0 -20 7 -23 16 -3 9 -6 176 -6 372 l0 356 32 26 c48 41 32
50 -88 50 -82 0 -106 -3 -110 -15z"/>
<path d="M11160 16281 c0 -5 14 -14 30 -21 l30 -12 0 -389 c0 -383 0 -388 -21
-403 -33 -23 -13 -36 57 -36 69 0 78 8 45 44 -16 19 -19 44 -24 239 -3 120 -4
217 -2 215 2 -2 36 -88 76 -193 39 -104 74 -192 76 -195 13 -14 33 46 68 204
21 96 40 174 42 172 2 -2 15 -88 28 -192 13 -104 27 -199 30 -211 5 -15 1 -24
-14 -32 -28 -15 -27 -39 2 -46 12 -3 56 -5 97 -3 62 2 75 6 78 21 2 10 -3 17
-12 17 -9 0 -18 10 -21 23 -3 12 -21 180 -41 372 -33 329 -34 352 -19 378 25
42 6 59 -64 55 l-56 -3 3 -46 c3 -39 -16 -132 -69 -333 l-11 -39 -38 86 c-21
47 -53 124 -71 171 -32 84 -32 87 -16 120 8 19 13 37 10 40 -10 10 -193 7
-193 -3z"/>
<path d="M12668 16278 c-15 -10 -29 -89 -77 -405 -32 -216 -64 -399 -71 -408
-7 -8 -19 -15 -26 -15 -19 0 -18 -26 2 -34 9 -3 40 -6 70 -6 41 0 56 4 61 16
3 9 0 20 -7 24 -9 6 -11 23 -6 64 l7 56 74 0 73 0 7 -51 c6 -44 4 -54 -15 -73
-19 -21 -19 -24 -5 -30 9 -3 57 -6 106 -6 82 0 89 2 89 20 0 12 -5 17 -14 14
-8 -3 -16 -2 -19 3 -3 5 -38 184 -77 398 -40 215 -77 401 -84 415 -13 29 -61
38 -88 18z m82 -630 c0 -15 -9 -18 -60 -18 -33 0 -60 3 -60 8 0 5 46 358 51
391 1 10 68 -362 69 -381z"/>
<path d="M7380 16259 c0 -16 4 -19 20 -14 20 6 20 2 20 -357 0 -373 0 -371
-40 -435 -8 -12 -11 -26 -6 -30 4 -4 83 -9 174 -11 92 -2 171 -7 176 -13 26
-25 41 2 65 123 19 90 16 128 -9 128 -5 0 -27 -26 -47 -57 -42 -64 -138 -138
-165 -128 -9 4 -19 20 -22 37 -3 17 -6 185 -6 374 0 279 3 344 13 344 17 0 59
44 50 53 -3 4 -55 7 -115 7 -103 0 -108 -1 -108 -21z"/>
<path d="M8363 16263 c-4 -10 2 -23 15 -34 22 -17 22 -20 22 -380 0 -362 0
-363 -22 -387 -23 -23 -23 -24 -4 -38 20 -14 120 -20 150 -8 18 7 22 49 6 59
-6 4 -10 60 -10 136 0 120 1 129 19 129 10 0 24 -6 30 -14 11 -13 71 -206 71
-228 0 -5 -10 -18 -22 -28 -19 -15 -21 -22 -12 -37 15 -24 149 -31 179 -9 20
14 20 15 -3 39 -15 16 -35 68 -59 156 l-36 132 26 27 c94 98 91 299 -5 416
-52 63 -114 86 -236 86 -86 0 -104 -3 -109 -17z m259 -101 c29 -85 34 -211 13
-282 -22 -74 -33 -84 -84 -75 l-39 6 5 182 c5 167 7 184 26 205 34 37 59 25
79 -36z"/>
<path d="M11810 16275 c0 -3 14 -12 30 -19 l31 -13 -1 -389 0 -389 -23 -17
c-12 -9 -20 -19 -17 -21 3 -2 35 -7 73 -10 56 -5 67 -4 67 9 0 9 -6 22 -14 29
-17 18 -29 174 -24 333 l3 113 69 -183 c38 -101 72 -187 76 -191 14 -17 28 24
65 188 21 94 41 173 45 178 3 4 14 -64 24 -150 10 -87 23 -182 28 -211 10 -49
9 -54 -11 -68 -42 -30 -26 -41 71 -47 50 -3 95 -4 100 -1 14 9 9 44 -7 44 -8
0 -15 1 -16 3 0 1 -17 166 -38 367 -34 326 -37 368 -24 393 23 46 12 57 -56
57 -33 0 -62 -4 -65 -9 -4 -5 -2 -21 4 -36 8 -21 2 -60 -31 -187 -22 -89 -43
-166 -46 -171 -6 -9 -96 194 -126 285 -13 37 -13 47 -1 70 8 15 14 32 14 38 0
6 -37 10 -100 10 -55 0 -100 -2 -100 -5z"/>
<path d="M13025 16256 l-30 -12 32 -12 33 -11 2 -376 3 -376 -22 -21 c-12 -12
-20 -25 -17 -29 3 -5 34 -9 69 -9 68 0 85 13 53 40 -16 13 -19 38 -23 235 -3
121 -3 215 0 210 3 -6 36 -91 74 -190 41 -107 75 -180 82 -180 9 0 26 55 51
165 21 91 41 176 44 190 5 16 17 -54 35 -190 l28 -215 -22 -23 c-31 -33 -11
-42 91 -42 65 0 84 3 89 15 3 9 -2 21 -11 28 -14 10 -23 72 -52 347 -33 317
-36 377 -19 443 l7 27 -72 0 c-62 0 -71 -2 -66 -16 17 -43 13 -71 -27 -229
l-44 -170 -22 50 c-99 222 -127 314 -101 330 6 3 10 13 10 21 0 18 -131 19
-175 0z"/>
<path d="M8822 15313 c-146 -4 -165 -13 -123 -57 22 -23 22 -26 19 -374 -3
-349 -3 -350 -26 -382 -42 -56 -32 -60 156 -60 118 0 172 -4 180 -12 9 -10 15
-9 26 2 19 21 108 249 101 261 -19 29 -81 -5 -121 -68 -37 -58 -105 -113 -139
-113 -42 0 -46 18 -43 196 l3 169 25 3 c18 2 36 -8 65 -38 39 -40 70 -51 78
-27 2 6 -6 42 -19 78 -39 118 -52 129 -94 84 -35 -37 -62 -29 -73 20 -11 55
-5 211 10 226 26 26 83 0 151 -67 43 -42 72 -64 88 -64 32 0 30 14 -10 101
-18 41 -38 86 -44 102 -10 22 -17 27 -44 25 -18 -1 -93 -4 -166 -5z"/>
<path d="M10056 15289 c-30 -74 -59 -177 -53 -192 11 -29 62 -2 83 45 23 52
52 88 69 88 29 0 35 -63 35 -397 0 -331 0 -335 -22 -352 -35 -29 -14 -41 73
-41 86 0 107 13 75 49 -14 15 -16 59 -16 367 0 192 4 355 9 363 14 22 44 -2
81 -68 27 -46 41 -60 58 -61 12 0 25 6 28 14 3 8 -7 58 -21 110 -31 106 -41
116 -101 96 -36 -12 -200 -9 -257 5 -24 7 -29 4 -41 -26z"/>
<path d="M10905 15200 c-19 -59 -30 -109 -25 -114 20 -20 60 5 84 52 13 26 33
58 45 72 21 24 21 25 36 6 13 -17 15 -74 15 -374 0 -319 -2 -356 -17 -367 -9
-7 -14 -19 -10 -29 5 -13 21 -16 80 -16 86 0 113 16 83 48 -14 17 -16 59 -16
376 0 316 2 357 16 363 20 7 41 -14 80 -80 31 -53 66 -72 77 -43 6 14 -20 129
-41 186 -9 23 -10 23 -191 24 l-182 1 -34 -105z"/>
<path d="M11956 15298 c-10 -6 -43 -8 -73 -6 -103 9 -158 -56 -157 -182 1 -98
24 -150 107 -238 75 -80 87 -110 87 -228 0 -65 -4 -84 -17 -96 -28 -23 -49
-28 -86 -17 -38 10 -57 39 -77 122 -14 54 -24 64 -47 46 -27 -23 -2 -269 28
-269 5 0 18 5 29 12 15 10 29 9 69 -6 68 -24 121 -10 177 49 58 60 77 122 72
238 -4 115 -20 148 -109 236 -98 97 -119 131 -119 202 0 106 42 112 104 14 43
-67 86 -95 86 -57 0 26 -39 175 -48 184 -4 3 -15 2 -26 -4z"/>
<path d="M8190 15280 c0 -12 5 -17 14 -14 8 3 16 1 19 -3 8 -12 147 -751 147
-778 0 -34 28 -65 59 -65 58 0 57 -3 120 418 33 216 65 400 71 408 7 7 19 14
26 14 19 0 18 26 -2 34 -9 3 -40 6 -70 6 -42 0 -56 -4 -61 -17 -4 -9 -1 -19 5
-21 7 -2 12 -18 12 -35 -1 -40 -66 -527 -72 -532 -2 -3 -26 119 -52 271 l-48
275 21 23 c12 12 18 26 14 29 -3 4 -51 7 -105 7 -91 0 -98 -1 -98 -20z"/>
<path d="M9747 15293 c-13 -12 -7 -33 13 -50 19 -17 20 -30 20 -379 0 -348 -1
-362 -20 -379 -44 -40 -21 -55 80 -55 77 0 93 14 64 57 -14 22 -15 68 -12 385
3 330 4 360 21 369 21 12 22 45 1 53 -21 8 -159 8 -167 -1z"/>
<path d="M10625 15290 c-3 -6 -33 -184 -65 -398 -32 -213 -61 -394 -65 -404
-4 -9 -16 -18 -27 -21 -42 -11 -12 -32 52 -35 70 -3 92 8 69 35 -12 14 -14 29
-6 71 l9 53 71 -3 72 -3 8 -49 c7 -42 5 -52 -13 -71 -11 -12 -17 -25 -13 -28
3 -4 51 -7 105 -7 91 0 98 1 98 20 0 12 -5 17 -14 14 -8 -3 -17 0 -21 6 -6 9
-130 655 -149 774 -4 21 -9 42 -12 47 -7 12 -91 11 -99 -1z m65 -450 c16 -97
30 -179 30 -183 0 -4 -27 -7 -60 -7 -40 0 -60 4 -60 12 0 24 42 343 47 358 7
21 8 16 43 -180z"/>
<path d="M11420 15276 c0 -13 7 -26 15 -30 13 -5 15 -56 15 -374 0 -352 -1
-370 -19 -386 -37 -33 -16 -46 74 -46 89 0 107 11 80 47 -12 15 -14 86 -15
381 0 353 1 363 21 383 35 35 10 49 -87 49 -82 0 -84 -1 -84 -24z"/>
<path d="M9233 15274 c-3 -8 4 -25 16 -38 21 -22 21 -29 21 -382 0 -348 -1
-360 -20 -372 -28 -17 -25 -41 6 -52 36 -14 128 -12 142 2 17 17 15 47 -3 54
-12 5 -15 30 -15 134 0 73 4 131 10 135 18 11 47 -14 64 -54 8 -22 25 -75 36
-118 l21 -78 -21 -14 c-24 -16 -26 -44 -5 -61 18 -15 159 -10 175 6 7 7 3 20
-13 42 -14 18 -38 84 -57 156 l-32 124 30 39 c64 79 80 201 42 310 -27 77 -65
122 -130 156 -48 24 -64 27 -157 27 -84 0 -105 -3 -110 -16z m251 -79 c9 -18
22 -80 28 -137 10 -92 10 -109 -7 -160 -26 -84 -32 -90 -83 -82 l-42 7 0 146
c1 80 5 166 9 190 15 75 67 95 95 36z"/>
<path d="M9215 13331 c-89 -41 -172 -172 -220 -351 -28 -107 -59 -296 -50
-311 4 -5 30 -21 58 -36 29 -14 102 -55 164 -90 84 -48 110 -68 106 -80 -5
-13 -1 -12 28 3 48 26 151 24 204 -3 22 -12 52 -32 67 -46 31 -29 98 -130 118
-176 7 -17 16 -31 20 -31 11 0 65 152 97 270 34 127 42 284 19 364 -22 73 -84
139 -148 156 -54 15 -78 36 -78 69 0 32 25 71 46 71 23 0 16 15 -31 68 -104
116 -291 173 -400 123z"/>
<path d="M7775 12957 c-100 -33 -178 -95 -217 -171 -26 -50 -34 -141 -19 -203
37 -148 259 -687 415 -1008 86 -176 248 -482 302 -567 l23 -36 98 29 c91 28
463 123 508 131 23 3 23 11 -30 558 -20 206 -28 355 -32 597 l-5 321 -129 61
c-162 78 -245 114 -494 213 -190 76 -205 81 -290 84 -57 2 -104 -1 -130 -9z"/>
<path d="M12535 12963 c-37 -10 -440 -181 -600 -254 -132 -60 -642 -313 -652
-323 -2 -2 13 -20 32 -42 42 -45 60 -98 51 -147 -10 -55 -66 -115 -66 -72 0
27 -86 110 -139 135 -44 20 -53 21 -80 10 -17 -7 -31 -16 -31 -20 0 -4 20 -50
45 -103 25 -52 55 -135 67 -184 12 -48 35 -115 52 -148 29 -56 31 -67 31 -170
0 -102 -2 -115 -33 -185 -17 -41 -51 -103 -75 -138 l-42 -63 -205 2 c-113 2
-428 0 -700 -4 -463 -8 -497 -9 -520 -27 -25 -19 -13 -19 686 -19 l712 -1 31
-35 c34 -39 31 -63 -9 -85 -12 -6 -286 -10 -797 -10 l-779 0 -34 -35 -34 -35
849 0 c701 1 876 -2 1000 -15 236 -24 417 -59 475 -90 21 -12 -156 -14 -1207
-15 l-1232 0 -25 -32 -25 -33 1005 -3 1006 -2 -75 -49 c-91 -59 -171 -140
-232 -231 -39 -59 -98 -174 -118 -232 -5 -15 -19 -18 -77 -18 -38 0 -70 4 -70
8 0 24 44 131 70 172 30 47 107 125 185 187 56 45 39 53 -127 53 l-137 0 -20
-28 c-32 -45 -65 -154 -101 -334 l-11 -58 -114 0 -113 0 15 78 c8 42 21 102
30 132 17 60 67 165 83 175 5 3 10 10 10 14 0 10 -438 24 -474 15 l-27 -6 31
-31 c53 -52 96 -157 124 -304 l14 -73 -123 0 -124 0 -17 78 c-26 118 -68 245
-98 296 l-27 46 -142 0 c-122 0 -185 -9 -167 -23 187 -142 251 -216 301 -348
l19 -50 -60 3 -61 3 -32 76 c-71 161 -186 307 -311 392 l-60 40 -29 -34 c-16
-19 -44 -52 -63 -75 l-33 -40 34 -131 c94 -365 258 -836 384 -1107 49 -104 72
-125 146 -133 l58 -6 -7 139 c-3 76 -9 196 -13 267 l-6 127 61 0 c43 0 62 -4
62 -13 0 -34 41 -514 45 -524 3 -9 26 -13 69 -13 l64 0 -5 68 c-10 162 -35
468 -40 475 -2 4 45 7 105 7 129 0 122 9 122 -145 0 -55 3 -171 7 -257 l6
-158 39 0 38 0 0 198 c0 108 3 234 7 280 l6 82 104 0 105 0 -6 -67 c-12 -119
-26 -356 -26 -427 l0 -68 61 4 c33 2 64 10 68 16 4 7 13 97 19 200 7 103 15
222 19 265 l6 77 65 0 65 0 -6 -112 c-4 -62 -10 -184 -13 -270 l-7 -158 54 0
54 0 185 188 c102 103 204 207 227 232 l42 45 -24 115 c-49 239 -117 496 -180
679 -14 41 -23 77 -20 80 12 11 95 39 99 33 25 -42 154 -505 201 -724 l17 -77
62 72 c91 105 236 287 236 297 0 11 -183 251 -289 379 -47 57 -90 109 -95 116
-6 8 3 23 30 48 l39 37 28 -33 c52 -58 222 -270 287 -357 34 -47 66 -88 70
-93 10 -12 390 537 390 564 0 16 -417 122 -725 184 -126 25 -240 48 -253 50
-18 5 -21 10 -17 33 4 15 8 37 11 50 3 16 11 22 29 22 69 0 514 -97 808 -177
122 -33 212 -52 217 -47 21 22 161 279 263 484 232 462 477 1070 477 1181 0
120 -69 222 -187 281 -58 28 -77 32 -157 34 -50 2 -100 0 -111 -3z m-2731
-2799 c17 -44 8 -54 -49 -54 -37 0 -55 4 -55 13 0 6 -3 22 -6 35 -6 21 -3 22
49 22 41 0 56 -4 61 -16z m370 0 c3 -9 6 -24 6 -35 0 -18 -8 -19 -120 -19
-112 0 -120 1 -120 19 0 11 -3 26 -6 35 -5 14 9 16 114 16 100 0 121 -3 126
-16z m384 -16 l-3 -33 -112 -3 c-120 -3 -120 -3 -107 46 6 21 11 22 116 22
l109 0 -3 -32z m268 16 c-3 -9 -6 -24 -6 -35 0 -17 -8 -19 -65 -19 -65 0 -65
0 -65 28 0 16 3 32 7 35 3 4 35 7 71 7 54 0 63 -2 58 -16z m-996 -181 c0 -16
3 -38 6 -50 6 -22 4 -23 -54 -23 l-60 0 -4 50 -3 50 58 0 c56 0 57 -1 57 -27z
m360 8 c0 -10 3 -33 6 -50 l7 -31 -115 0 -115 0 -7 38 c-10 65 -16 62 109 62
106 0 115 -2 115 -19z m350 0 c0 -10 -3 -33 -6 -50 l-6 -31 -104 0 -104 0 0
50 0 50 110 0 c101 0 110 -2 110 -19z m260 -31 l0 -50 -65 0 c-64 0 -65 0 -65
28 0 65 7 72 71 72 l59 0 0 -50z"/>
<path d="M8930 12362 c0 -218 12 -407 50 -802 17 -168 30 -321 30 -341 0 -59
9 -61 175 -33 82 13 152 24 156 24 8 0 23 -99 17 -106 -3 -2 -71 -15 -152 -28
-82 -14 -150 -27 -153 -30 -3 -2 -2 -19 2 -36 7 -32 8 -32 54 -27 25 4 75 9
111 13 62 6 68 9 123 62 35 35 55 62 52 71 -8 19 53 81 80 81 12 0 32 11 45
25 23 25 23 25 3 25 -27 0 -95 77 -128 145 -60 123 -56 241 15 417 37 91 41
110 36 158 -8 79 -33 146 -71 185 -40 43 -58 44 -100 2 -40 -40 -54 -85 -62
-200 -6 -82 -7 -86 -23 -72 -9 9 -30 39 -46 68 -27 48 -29 60 -29 158 0 103 1
107 40 185 22 43 41 82 43 86 3 6 -247 148 -261 148 -4 0 -7 -80 -7 -178z"/>
<path d="M10957 12463 c-10 -10 -8 -66 3 -83 7 -11 10 0 10 38 0 53 -1 57 -13
45z"/>
<path d="M11040 12426 l0 -47 48 27 c26 15 49 29 50 30 2 1 -11 7 -30 12 -18
5 -41 13 -50 17 -16 6 -18 1 -18 -39z"/>
<path d="M11198 12338 c-32 -17 -58 -34 -58 -39 0 -4 24 -21 53 -37 53 -30
117 -92 117 -115 1 -7 10 -1 20 12 21 25 26 74 11 114 -10 26 -69 97 -80 97
-3 0 -32 -15 -63 -32z"/>
<path d="M10320 12204 c0 -84 4 -114 14 -123 8 -6 23 -34 35 -62 14 -33 26
-47 34 -43 11 7 98 64 105 70 13 9 -72 146 -124 202 l-63 67 -1 -111z"/>
<path d="M11040 11667 c0 -451 -2 -441 76 -334 58 78 92 152 110 241 23 108 0
204 -68 289 -16 21 -48 73 -70 115 -22 42 -42 79 -44 81 -2 2 -4 -174 -4 -392z"/>
<path d="M11111 12015 c0 -16 6 -39 14 -49 19 -25 19 -5 0 44 l-13 35 -1 -30z"/>
<path d="M10468 11879 l-68 -51 0 -57 c-1 -98 -18 -182 -50 -243 -27 -53 -30
-67 -30 -153 0 -93 0 -95 24 -95 54 0 159 170 197 318 25 98 25 333 0 332 -3
0 -36 -23 -73 -51z"/>
<path d="M10363 11735 c0 -38 2 -53 4 -32 2 20 2 52 0 70 -2 17 -4 1 -4 -38z"/>
<path d="M10656 11441 c-32 -89 -56 -165 -52 -168 6 -6 9 1 73 175 24 68 43
130 41 139 -2 8 -29 -58 -62 -146z"/>
<path d="M9851 11392 c-33 -27 -33 -29 -22 -65 l13 -37 63 0 64 0 -24 49 c-14
27 -25 53 -25 59 0 8 -22 22 -34 22 -1 0 -17 -13 -35 -28z"/>
<path d="M8780 10994 c-111 -26 -433 -114 -439 -119 -10 -10 363 -565 379
-565 3 1 32 38 65 83 33 45 97 129 143 187 61 76 82 110 78 125 -3 11 -13 57
-23 103 l-17 82 -120 0 c-142 0 -143 9 -1 45 54 14 100 27 102 29 2 2 1 15 -3
30 -8 33 -24 33 -164 0z"/>
<path d="M9085 10858 c14 -70 13 -70 55 -24 22 24 40 46 40 50 0 3 -23 6 -51
6 l-51 0 7 -32z"/>
<path d="M8115 10803 c-449 -158 -738 -271 -807 -316 -112 -72 -167 -160 -168
-268 0 -120 80 -229 215 -294 190 -91 886 -350 898 -334 2 2 43 69 92 149 49
80 137 218 197 308 66 98 106 168 101 175 -4 7 -37 53 -73 102 -71 96 -241
348 -305 453 -21 34 -41 62 -44 61 -3 0 -51 -16 -106 -36z"/>
<path d="M12255 10778 c-64 -104 -192 -295 -293 -435 -52 -72 -93 -135 -92
-140 0 -4 43 -69 95 -143 51 -74 144 -214 205 -310 62 -96 116 -178 119 -183
17 -18 561 185 883 330 242 109 292 160 293 298 0 87 -33 163 -97 228 -49 48
-135 88 -468 214 -185 70 -577 203 -597 203 -6 0 -27 -28 -48 -62z"/>
<path d="M8912 10378 c-74 -98 -119 -166 -114 -174 13 -22 249 -307 318 -384
171 -190 255 -274 244 -245 -113 291 -223 619 -281 837 -19 71 -37 128 -40
128 -3 0 -60 -73 -127 -162z"/>
<path d="M8612 9952 c-61 -92 -142 -219 -181 -282 l-70 -115 57 -18 c191 -61
549 -144 802 -187 96 -17 188 -32 204 -35 24 -4 2 22 -140 167 -180 184 -311
331 -467 520 l-95 117 -110 -167z"/>
<path d="M11730 10038 c-44 -57 -155 -190 -267 -319 -12 -15 -11 -39 12 -185
14 -93 28 -170 29 -171 10 -10 656 145 674 162 8 7 -375 585 -387 585 -3 -1
-31 -33 -61 -72z"/>
<path d="M11202 9440 c-133 -139 -140 -148 -110 -144 161 22 290 43 294 47 6
5 -27 230 -35 239 -3 4 -70 -60 -149 -142z"/>
<path d="M12067 9379 c-93 -26 -255 -67 -361 -90 l-192 -43 8 -65 c30 -244 58
-745 58 -1022 l0 -176 198 -93 c228 -107 645 -286 747 -321 97 -33 241 -34
300 -2 227 122 166 458 -219 1208 -112 218 -337 620 -359 641 -9 8 -58 -2
-180 -37z"/>
<path d="M11275 9210 c-60 -10 -162 -24 -225 -30 -101 -11 -119 -16 -151 -41
l-36 -27 -24 23 c-17 17 -31 22 -50 18 -23 -4 -27 -11 -33 -56 -3 -29 -6 -68
-6 -89 0 -34 -4 -39 -65 -77 -35 -23 -67 -41 -70 -41 -3 0 -5 56 -5 125 l0
125 -60 0 -60 0 0 -169 0 -169 -66 -43 -66 -43 26 -23 c32 -27 45 -28 72 -8
29 22 34 18 34 -25 0 -37 4 -42 53 -75 l52 -35 7 37 c4 21 7 74 8 118 l0 80
66 43 66 44 -7 -194 c-4 -106 -8 -197 -9 -203 -1 -13 321 -207 554 -333 l185
-100 3 72 c5 100 -15 576 -34 797 -21 259 -28 312 -39 314 -5 1 -59 -6 -120
-15z"/>
<path d="M9905 9103 c3 -27 14 -54 25 -63 10 -8 36 -30 59 -49 l42 -33 -3 93
-3 94 -64 3 -63 3 7 -48z"/>
<path d="M10220 8976 l0 -165 28 -19 c15 -10 33 -22 40 -26 9 -6 12 34 12 183
l0 191 -40 0 -40 0 0 -164z"/>
<path d="M9710 9076 c0 -5 23 -53 52 -107 44 -84 59 -104 100 -130 47 -31 48
-32 48 -83 0 -46 7 -64 58 -149 l57 -96 5 104 5 104 78 -56 79 -55 -81 -54
-81 -54 22 -34 22 -34 41 26 c22 13 52 33 67 43 14 11 29 19 32 19 3 0 6 -69
6 -152 l1 -153 39 -55 40 -54 2 212 3 213 90 -64 90 -63 0 -47 c-1 -26 -2
-104 -3 -174 l-2 -128 -45 -28 c-25 -16 -45 -32 -45 -37 0 -4 9 -19 21 -34 20
-26 22 -26 45 -11 l24 15 0 -43 c0 -37 8 -54 48 -106 l47 -62 7 43 c3 24 7 88
7 144 l1 101 56 37 c31 21 57 36 58 34 2 -2 -3 -109 -9 -238 -10 -191 -10
-239 0 -256 8 -11 84 -93 170 -182 177 -182 212 -206 310 -206 110 0 212 71
263 182 24 54 25 65 30 282 l4 225 -198 105 c-256 135 -526 297 -767 459 -185
124 -436 305 -524 377 -23 19 -53 40 -65 47 -55 29 -148 99 -148 111 0 7 -13
25 -30 41 -16 16 -30 25 -30 21z m958 -798 c23 -16 42 -37 42 -46 -1 -14 -108
-99 -114 -90 -1 2 0 42 2 90 3 63 7 86 16 81 6 -3 30 -19 54 -35z"/>
<path d="M10823 1075 c-96 -79 -103 -88 -104 -123 -1 -20 -4 -47 -7 -59 -4
-13 -69 -88 -145 -168 l-138 -145 -99 0 -99 0 -122 -102 -122 -103 269 -3 268
-2 146 152 c80 84 171 181 203 214 l57 61 -2 182 -3 182 -102 -86z"/>
</g>
</svg>
